<svg xmlns="http://www.w3.org/2000/svg" xmlns:xlink="http://www.w3.org/1999/xlink" width="1600" zoomAndPan="magnify" viewBox="0 0 1200 675.000002" height="900" preserveAspectRatio="xMidYMid meet" version="1.0"><defs><g/><clipPath id="899551d024"><path d="M 443 380 L 757 380 L 757 471.800781 L 443 471.800781 Z M 443 380 " clip-rule="nonzero"/></clipPath><clipPath id="fc86e600a1"><path d="M 443 202.199219 L 757 202.199219 L 757 334 L 443 334 Z M 443 202.199219 " clip-rule="nonzero"/></clipPath></defs><g clip-path="url(#899551d024)"><path fill="#f97316" d="M 754.347656 406.628906 L 695.15625 380.980469 L 609.953125 415.066406 C 606.882812 416.289062 603.296875 416.898438 599.710938 416.898438 C 596.128906 416.898438 592.546875 416.292969 589.484375 415.070312 L 504.257812 380.980469 L 445.074219 406.628906 C 442.375 407.792969 442.40625 409.628906 445.128906 410.71875 L 594.773438 470.574219 C 597.5 471.664062 601.921875 471.664062 604.652344 470.574219 L 754.296875 410.71875 C 757.015625 409.628906 757.042969 407.792969 754.347656 406.628906 Z M 754.347656 406.628906 " fill-opacity="1" fill-rule="nonzero"/></g><path fill="#f97316" d="M 754.347656 337.503906 L 695.148438 311.851562 L 609.953125 345.929688 C 606.890625 347.15625 603.296875 347.769531 599.714844 347.769531 C 596.128906 347.769531 592.542969 347.15625 589.472656 345.933594 L 504.265625 311.851562 L 445.074219 337.503906 C 442.375 338.667969 442.40625 340.503906 445.128906 341.59375 L 594.773438 401.449219 C 597.5 402.539062 601.921875 402.539062 604.652344 401.449219 L 754.296875 341.59375 C 757.015625 340.503906 757.042969 338.675781 754.347656 337.503906 Z M 754.347656 337.503906 " fill-opacity="1" fill-rule="nonzero"/><g clip-path="url(#fc86e600a1)"><path fill="#f97316" d="M 445.128906 272.46875 L 523.164062 303.683594 L 594.773438 332.328125 C 597.5 333.417969 601.921875 333.417969 604.652344 332.328125 L 676.285156 303.675781 L 754.296875 272.472656 C 757.019531 271.382812 757.050781 269.554688 754.355469 268.382812 L 604.589844 203.484375 C 601.890625 202.320312 597.523438 202.320312 594.832031 203.484375 L 445.074219 268.378906 C 442.375 269.550781 442.40625 271.378906 445.128906 272.46875 Z M 445.128906 272.46875 " fill-opacity="1" fill-rule="nonzero"/></g><g fill="#f97316" fill-opacity="1"><g transform="translate(188.110198, 419.826368)"><g><path d="M 13.625 0.359375 C 11.332031 0.359375 9.3125 -0.113281 7.5625 -1.0625 C 5.8125 -2.019531 4.441406 -3.457031 3.453125 -5.375 C 2.460938 -7.289062 1.96875 -9.65625 1.96875 -12.46875 C 1.96875 -15.28125 2.460938 -17.644531 3.453125 -19.5625 C 4.441406 -21.476562 5.8125 -22.910156 7.5625 -23.859375 C 9.3125 -24.816406 11.332031 -25.296875 13.625 -25.296875 C 16.03125 -25.296875 18.070312 -24.828125 19.75 -23.890625 C 21.425781 -22.953125 22.625 -21.519531 23.34375 -19.59375 L 19.734375 -17.40625 L 19.3125 -17.421875 C 18.78125 -18.710938 18.054688 -19.640625 17.140625 -20.203125 C 16.222656 -20.765625 15.050781 -21.046875 13.625 -21.046875 C 11.5625 -21.046875 9.945312 -20.359375 8.78125 -18.984375 C 7.625 -17.617188 7.046875 -15.445312 7.046875 -12.46875 C 7.046875 -9.5 7.625 -7.328125 8.78125 -5.953125 C 9.945312 -4.585938 11.5625 -3.90625 13.625 -3.90625 C 16.875 -3.90625 18.859375 -5.476562 19.578125 -8.625 L 20.015625 -8.625 L 23.640625 -6.734375 C 22.960938 -4.367188 21.796875 -2.59375 20.140625 -1.40625 C 18.492188 -0.226562 16.320312 0.359375 13.625 0.359375 Z M 13.625 0.359375 "/></g></g></g><g fill="#f97316" fill-opacity="1"><g transform="translate(212.575319, 419.826368)"><g><path d="M 10.9375 0.359375 C 9.09375 0.359375 7.472656 -0.015625 6.078125 -0.765625 C 4.679688 -1.523438 3.597656 -2.632812 2.828125 -4.09375 C 2.066406 -5.5625 1.6875 -7.332031 1.6875 -9.40625 C 1.6875 -11.46875 2.066406 -13.234375 2.828125 -14.703125 C 3.597656 -16.171875 4.679688 -17.28125 6.078125 -18.03125 C 7.472656 -18.789062 9.09375 -19.171875 10.9375 -19.171875 C 12.78125 -19.171875 14.394531 -18.789062 15.78125 -18.03125 C 17.175781 -17.28125 18.257812 -16.171875 19.03125 -14.703125 C 19.8125 -13.234375 20.203125 -11.46875 20.203125 -9.40625 C 20.203125 -7.332031 19.8125 -5.5625 19.03125 -4.09375 C 18.257812 -2.632812 17.175781 -1.523438 15.78125 -0.765625 C 14.394531 -0.015625 12.78125 0.359375 10.9375 0.359375 Z M 10.9375 -3.65625 C 13.851562 -3.65625 15.3125 -5.570312 15.3125 -9.40625 C 15.3125 -11.394531 14.9375 -12.851562 14.1875 -13.78125 C 13.4375 -14.707031 12.351562 -15.171875 10.9375 -15.171875 C 8.007812 -15.171875 6.546875 -13.25 6.546875 -9.40625 C 6.546875 -5.570312 8.007812 -3.65625 10.9375 -3.65625 Z M 10.9375 -3.65625 "/></g></g></g><g fill="#f97316" fill-opacity="1"><g transform="translate(234.447204, 419.826368)"><g><path d="M 2.71875 0 L 2.71875 -18.8125 L 7.25 -18.8125 L 7.25 -16.046875 L 7.609375 -15.96875 C 8.773438 -18.101562 10.675781 -19.171875 13.3125 -19.171875 C 15.476562 -19.171875 17.070312 -18.578125 18.09375 -17.390625 C 19.113281 -16.210938 19.625 -14.492188 19.625 -12.234375 L 19.625 0 L 14.890625 0 L 14.890625 -11.65625 C 14.890625 -12.90625 14.640625 -13.804688 14.140625 -14.359375 C 13.640625 -14.910156 12.835938 -15.1875 11.734375 -15.1875 C 10.378906 -15.1875 9.320312 -14.75 8.5625 -13.875 C 7.8125 -13 7.4375 -11.617188 7.4375 -9.734375 L 7.4375 0 Z M 2.71875 0 "/></g></g></g><g fill="#f97316" fill-opacity="1"><g transform="translate(256.489697, 419.826368)"><g><path d="M 12.984375 -4.484375 L 14.203125 -0.984375 C 13.691406 -0.566406 13.050781 -0.238281 12.28125 0 C 11.507812 0.238281 10.632812 0.359375 9.65625 0.359375 C 7.625 0.359375 6.078125 -0.191406 5.015625 -1.296875 C 3.953125 -2.410156 3.421875 -4.023438 3.421875 -6.140625 L 3.421875 -15.078125 L 0.5625 -15.078125 L 0.5625 -18.828125 L 3.421875 -18.828125 L 3.421875 -22.5 L 8.15625 -23.265625 L 8.15625 -18.828125 L 13.5 -18.828125 L 13.5 -15.078125 L 8.15625 -15.078125 L 8.15625 -6.484375 C 8.15625 -5.546875 8.347656 -4.863281 8.734375 -4.4375 C 9.117188 -4.007812 9.679688 -3.796875 10.421875 -3.796875 C 11.265625 -3.796875 12 -4.023438 12.625 -4.484375 Z M 12.984375 -4.484375 "/></g></g></g><g fill="#f97316" fill-opacity="1"><g transform="translate(271.110763, 419.826368)"><g><path d="M 18.59375 -8.34375 L 6.5 -8.34375 C 6.632812 -6.707031 7.097656 -5.515625 7.890625 -4.765625 C 8.691406 -4.023438 9.78125 -3.65625 11.15625 -3.65625 C 12.238281 -3.65625 13.113281 -3.851562 13.78125 -4.25 C 14.457031 -4.65625 15 -5.269531 15.40625 -6.09375 L 15.765625 -6.09375 L 18.90625 -4.078125 C 18.289062 -2.753906 17.363281 -1.679688 16.125 -0.859375 C 14.882812 -0.046875 13.226562 0.359375 11.15625 0.359375 C 9.207031 0.359375 7.523438 -0.0078125 6.109375 -0.75 C 4.691406 -1.488281 3.597656 -2.585938 2.828125 -4.046875 C 2.066406 -5.515625 1.6875 -7.300781 1.6875 -9.40625 C 1.6875 -11.539062 2.085938 -13.34375 2.890625 -14.8125 C 3.703125 -16.28125 4.796875 -17.375 6.171875 -18.09375 C 7.546875 -18.8125 9.09375 -19.171875 10.8125 -19.171875 C 13.476562 -19.171875 15.519531 -18.460938 16.9375 -17.046875 C 18.351562 -15.640625 19.0625 -13.570312 19.0625 -10.84375 C 19.0625 -9.851562 19.023438 -9.085938 18.953125 -8.546875 Z M 14.53125 -11.390625 C 14.488281 -12.828125 14.15625 -13.867188 13.53125 -14.515625 C 12.914062 -15.171875 12.007812 -15.5 10.8125 -15.5 C 8.425781 -15.5 7.023438 -14.128906 6.609375 -11.390625 Z M 14.53125 -11.390625 "/></g></g></g><g fill="#f97316" fill-opacity="1"><g transform="translate(291.566606, 419.826368)"><g><path d="M 2.71875 0 L 2.71875 -18.8125 L 7.25 -18.8125 L 7.25 -16.046875 L 7.609375 -15.96875 C 8.773438 -18.101562 10.675781 -19.171875 13.3125 -19.171875 C 15.476562 -19.171875 17.070312 -18.578125 18.09375 -17.390625 C 19.113281 -16.210938 19.625 -14.492188 19.625 -12.234375 L 19.625 0 L 14.890625 0 L 14.890625 -11.65625 C 14.890625 -12.90625 14.640625 -13.804688 14.140625 -14.359375 C 13.640625 -14.910156 12.835938 -15.1875 11.734375 -15.1875 C 10.378906 -15.1875 9.320312 -14.75 8.5625 -13.875 C 7.8125 -13 7.4375 -11.617188 7.4375 -9.734375 L 7.4375 0 Z M 2.71875 0 "/></g></g></g><g fill="#f97316" fill-opacity="1"><g transform="translate(313.609099, 419.826368)"><g><path d="M 12.984375 -4.484375 L 14.203125 -0.984375 C 13.691406 -0.566406 13.050781 -0.238281 12.28125 0 C 11.507812 0.238281 10.632812 0.359375 9.65625 0.359375 C 7.625 0.359375 6.078125 -0.191406 5.015625 -1.296875 C 3.953125 -2.410156 3.421875 -4.023438 3.421875 -6.140625 L 3.421875 -15.078125 L 0.5625 -15.078125 L 0.5625 -18.828125 L 3.421875 -18.828125 L 3.421875 -22.5 L 8.15625 -23.265625 L 8.15625 -18.828125 L 13.5 -18.828125 L 13.5 -15.078125 L 8.15625 -15.078125 L 8.15625 -6.484375 C 8.15625 -5.546875 8.347656 -4.863281 8.734375 -4.4375 C 9.117188 -4.007812 9.679688 -3.796875 10.421875 -3.796875 C 11.265625 -3.796875 12 -4.023438 12.625 -4.484375 Z M 12.984375 -4.484375 "/></g></g></g><g fill="#f97316" fill-opacity="1"><g transform="translate(328.230165, 419.826368)"><g/></g></g><g fill="#f97316" fill-opacity="1"><g transform="translate(336.470509, 419.826368)"><g><path d="M 20 -24.9375 L 20 -20.796875 L 12.796875 -20.796875 L 12.796875 0 L 7.875 0 L 7.875 -20.796875 L 0.6875 -20.796875 L 0.6875 -24.9375 Z M 20 -24.9375 "/></g></g></g><g fill="#f97316" fill-opacity="1"><g transform="translate(357.148142, 419.826368)"><g><path d="M 4.15625 7.984375 C 3.351562 7.984375 2.625 7.921875 1.96875 7.796875 C 1.3125 7.671875 0.78125 7.503906 0.375 7.296875 L 1.125 3.484375 L 1.4375 3.375 C 1.71875 3.519531 2.066406 3.640625 2.484375 3.734375 C 2.910156 3.828125 3.34375 3.875 3.78125 3.875 C 4.550781 3.875 5.1875 3.773438 5.6875 3.578125 C 6.195312 3.378906 6.625 3.046875 6.96875 2.578125 C 7.320312 2.117188 7.640625 1.484375 7.921875 0.671875 L 0.40625 -18.8125 L 5.359375 -18.8125 L 10.03125 -5.734375 L 10.4375 -5.734375 L 15 -18.8125 L 19.8125 -18.8125 L 12.25 1.171875 C 11.644531 2.785156 10.976562 4.082031 10.25 5.0625 C 9.53125 6.050781 8.679688 6.785156 7.703125 7.265625 C 6.722656 7.742188 5.539062 7.984375 4.15625 7.984375 Z M 4.15625 7.984375 "/></g></g></g><g fill="#f97316" fill-opacity="1"><g transform="translate(377.348074, 419.826368)"><g><path d="M 2.71875 7.625 L 2.71875 -18.8125 L 7.4375 -18.8125 L 7.4375 -16.359375 L 7.796875 -16.296875 C 8.347656 -17.242188 9.09375 -17.957031 10.03125 -18.4375 C 10.96875 -18.925781 12.0625 -19.171875 13.3125 -19.171875 C 14.820312 -19.171875 16.140625 -18.8125 17.265625 -18.09375 C 18.398438 -17.382812 19.28125 -16.296875 19.90625 -14.828125 C 20.539062 -13.367188 20.859375 -11.5625 20.859375 -9.40625 C 20.859375 -7.25 20.523438 -5.441406 19.859375 -3.984375 C 19.203125 -2.535156 18.28125 -1.445312 17.09375 -0.71875 C 15.90625 0 14.539062 0.359375 13 0.359375 C 11.820312 0.359375 10.804688 0.164062 9.953125 -0.21875 C 9.109375 -0.613281 8.390625 -1.226562 7.796875 -2.0625 L 7.4375 -2 L 7.4375 7.625 Z M 11.6875 -3.65625 C 13.09375 -3.65625 14.160156 -4.113281 14.890625 -5.03125 C 15.617188 -5.957031 15.984375 -7.414062 15.984375 -9.40625 C 15.984375 -11.394531 15.617188 -12.851562 14.890625 -13.78125 C 14.160156 -14.707031 13.09375 -15.171875 11.6875 -15.171875 C 10.363281 -15.171875 9.316406 -14.691406 8.546875 -13.734375 C 7.773438 -12.773438 7.390625 -11.332031 7.390625 -9.40625 C 7.390625 -7.476562 7.773438 -6.035156 8.546875 -5.078125 C 9.316406 -4.128906 10.363281 -3.65625 11.6875 -3.65625 Z M 11.6875 -3.65625 "/></g></g></g><g fill="#f97316" fill-opacity="1"><g transform="translate(399.885317, 419.826368)"><g><path d="M 18.59375 -8.34375 L 6.5 -8.34375 C 6.632812 -6.707031 7.097656 -5.515625 7.890625 -4.765625 C 8.691406 -4.023438 9.78125 -3.65625 11.15625 -3.65625 C 12.238281 -3.65625 13.113281 -3.851562 13.78125 -4.25 C 14.457031 -4.65625 15 -5.269531 15.40625 -6.09375 L 15.765625 -6.09375 L 18.90625 -4.078125 C 18.289062 -2.753906 17.363281 -1.679688 16.125 -0.859375 C 14.882812 -0.046875 13.226562 0.359375 11.15625 0.359375 C 9.207031 0.359375 7.523438 -0.0078125 6.109375 -0.75 C 4.691406 -1.488281 3.597656 -2.585938 2.828125 -4.046875 C 2.066406 -5.515625 1.6875 -7.300781 1.6875 -9.40625 C 1.6875 -11.539062 2.085938 -13.34375 2.890625 -14.8125 C 3.703125 -16.28125 4.796875 -17.375 6.171875 -18.09375 C 7.546875 -18.8125 9.09375 -19.171875 10.8125 -19.171875 C 13.476562 -19.171875 15.519531 -18.460938 16.9375 -17.046875 C 18.351562 -15.640625 19.0625 -13.570312 19.0625 -10.84375 C 19.0625 -9.851562 19.023438 -9.085938 18.953125 -8.546875 Z M 14.53125 -11.390625 C 14.488281 -12.828125 14.15625 -13.867188 13.53125 -14.515625 C 12.914062 -15.171875 12.007812 -15.5 10.8125 -15.5 C 8.425781 -15.5 7.023438 -14.128906 6.609375 -11.390625 Z M 14.53125 -11.390625 "/></g></g></g><g fill="#f97316" fill-opacity="1"><g transform="translate(779.733696, 350.10633)"><g><path d="M 20 -24.9375 L 20 -20.796875 L 12.796875 -20.796875 L 12.796875 0 L 7.875 0 L 7.875 -20.796875 L 0.6875 -20.796875 L 0.6875 -24.9375 Z M 20 -24.9375 "/></g></g></g><g fill="#f97316" fill-opacity="1"><g transform="translate(800.411329, 350.10633)"><g><path d="M 18.59375 -8.34375 L 6.5 -8.34375 C 6.632812 -6.707031 7.097656 -5.515625 7.890625 -4.765625 C 8.691406 -4.023438 9.78125 -3.65625 11.15625 -3.65625 C 12.238281 -3.65625 13.113281 -3.851562 13.78125 -4.25 C 14.457031 -4.65625 15 -5.269531 15.40625 -6.09375 L 15.765625 -6.09375 L 18.90625 -4.078125 C 18.289062 -2.753906 17.363281 -1.679688 16.125 -0.859375 C 14.882812 -0.046875 13.226562 0.359375 11.15625 0.359375 C 9.207031 0.359375 7.523438 -0.0078125 6.109375 -0.75 C 4.691406 -1.488281 3.597656 -2.585938 2.828125 -4.046875 C 2.066406 -5.515625 1.6875 -7.300781 1.6875 -9.40625 C 1.6875 -11.539062 2.085938 -13.34375 2.890625 -14.8125 C 3.703125 -16.28125 4.796875 -17.375 6.171875 -18.09375 C 7.546875 -18.8125 9.09375 -19.171875 10.8125 -19.171875 C 13.476562 -19.171875 15.519531 -18.460938 16.9375 -17.046875 C 18.351562 -15.640625 19.0625 -13.570312 19.0625 -10.84375 C 19.0625 -9.851562 19.023438 -9.085938 18.953125 -8.546875 Z M 14.53125 -11.390625 C 14.488281 -12.828125 14.15625 -13.867188 13.53125 -14.515625 C 12.914062 -15.171875 12.007812 -15.5 10.8125 -15.5 C 8.425781 -15.5 7.023438 -14.128906 6.609375 -11.390625 Z M 14.53125 -11.390625 "/></g></g></g><g fill="#f97316" fill-opacity="1"><g transform="translate(820.867172, 350.10633)"><g><path d="M 2.71875 0 L 2.71875 -18.8125 L 7.25 -18.8125 L 7.25 -16.296875 L 7.609375 -16.21875 C 8.222656 -17.226562 8.941406 -17.972656 9.765625 -18.453125 C 10.585938 -18.929688 11.644531 -19.171875 12.9375 -19.171875 C 14.351562 -19.171875 15.492188 -18.890625 16.359375 -18.328125 C 17.222656 -17.765625 17.851562 -16.941406 18.25 -15.859375 L 18.609375 -15.859375 C 19.191406 -16.984375 19.941406 -17.816406 20.859375 -18.359375 C 21.773438 -18.898438 22.914062 -19.171875 24.28125 -19.171875 C 28.175781 -19.171875 30.125 -17 30.125 -12.65625 L 30.125 0 L 25.40625 0 L 25.40625 -12.0625 C 25.40625 -13.164062 25.1875 -13.960938 24.75 -14.453125 C 24.320312 -14.941406 23.628906 -15.1875 22.671875 -15.1875 C 20.078125 -15.1875 18.78125 -13.453125 18.78125 -9.984375 L 18.78125 0 L 14.0625 0 L 14.0625 -12.0625 C 14.0625 -13.164062 13.84375 -13.960938 13.40625 -14.453125 C 12.96875 -14.941406 12.269531 -15.1875 11.3125 -15.1875 C 10.09375 -15.1875 9.140625 -14.78125 8.453125 -13.96875 C 7.773438 -13.15625 7.4375 -11.859375 7.4375 -10.078125 L 7.4375 0 Z M 2.71875 0 "/></g></g></g><g fill="#f97316" fill-opacity="1"><g transform="translate(853.419089, 350.10633)"><g><path d="M 2.71875 7.625 L 2.71875 -18.8125 L 7.4375 -18.8125 L 7.4375 -16.359375 L 7.796875 -16.296875 C 8.347656 -17.242188 9.09375 -17.957031 10.03125 -18.4375 C 10.96875 -18.925781 12.0625 -19.171875 13.3125 -19.171875 C 14.820312 -19.171875 16.140625 -18.8125 17.265625 -18.09375 C 18.398438 -17.382812 19.28125 -16.296875 19.90625 -14.828125 C 20.539062 -13.367188 20.859375 -11.5625 20.859375 -9.40625 C 20.859375 -7.25 20.523438 -5.441406 19.859375 -3.984375 C 19.203125 -2.535156 18.28125 -1.445312 17.09375 -0.71875 C 15.90625 0 14.539062 0.359375 13 0.359375 C 11.820312 0.359375 10.804688 0.164062 9.953125 -0.21875 C 9.109375 -0.613281 8.390625 -1.226562 7.796875 -2.0625 L 7.4375 -2 L 7.4375 7.625 Z M 11.6875 -3.65625 C 13.09375 -3.65625 14.160156 -4.113281 14.890625 -5.03125 C 15.617188 -5.957031 15.984375 -7.414062 15.984375 -9.40625 C 15.984375 -11.394531 15.617188 -12.851562 14.890625 -13.78125 C 14.160156 -14.707031 13.09375 -15.171875 11.6875 -15.171875 C 10.363281 -15.171875 9.316406 -14.691406 8.546875 -13.734375 C 7.773438 -12.773438 7.390625 -11.332031 7.390625 -9.40625 C 7.390625 -7.476562 7.773438 -6.035156 8.546875 -5.078125 C 9.316406 -4.128906 10.363281 -3.65625 11.6875 -3.65625 Z M 11.6875 -3.65625 "/></g></g></g><g fill="#f97316" fill-opacity="1"><g transform="translate(875.956344, 350.10633)"><g><path d="M 7.8125 0.359375 C 6.113281 0.359375 4.816406 -0.0976562 3.921875 -1.015625 C 3.035156 -1.929688 2.59375 -3.320312 2.59375 -5.1875 L 2.59375 -26.375 L 7.3125 -26.375 L 7.3125 -5.375 C 7.3125 -4.226562 7.789062 -3.65625 8.75 -3.65625 C 9.019531 -3.65625 9.3125 -3.695312 9.625 -3.78125 L 9.859375 -3.71875 L 10.28125 -0.078125 C 10.019531 0.0546875 9.671875 0.160156 9.234375 0.234375 C 8.804688 0.316406 8.332031 0.359375 7.8125 0.359375 Z M 7.8125 0.359375 "/></g></g></g><g fill="#f97316" fill-opacity="1"><g transform="translate(886.772862, 350.10633)"><g><path d="M 7.328125 0.359375 C 6.128906 0.359375 5.082031 0.140625 4.1875 -0.296875 C 3.300781 -0.742188 2.617188 -1.394531 2.140625 -2.25 C 1.671875 -3.113281 1.4375 -4.148438 1.4375 -5.359375 C 1.4375 -6.472656 1.671875 -7.40625 2.140625 -8.15625 C 2.617188 -8.914062 3.359375 -9.535156 4.359375 -10.015625 C 5.367188 -10.503906 6.679688 -10.878906 8.296875 -11.140625 C 9.421875 -11.316406 10.273438 -11.515625 10.859375 -11.734375 C 11.441406 -11.953125 11.832031 -12.195312 12.03125 -12.46875 C 12.238281 -12.738281 12.34375 -13.085938 12.34375 -13.515625 C 12.34375 -14.117188 12.132812 -14.578125 11.71875 -14.890625 C 11.300781 -15.210938 10.601562 -15.375 9.625 -15.375 C 8.570312 -15.375 7.570312 -15.140625 6.625 -14.671875 C 5.6875 -14.203125 4.867188 -13.585938 4.171875 -12.828125 L 3.84375 -12.828125 L 1.859375 -15.8125 C 2.816406 -16.875 3.984375 -17.695312 5.359375 -18.28125 C 6.734375 -18.875 8.234375 -19.171875 9.859375 -19.171875 C 12.347656 -19.171875 14.148438 -18.640625 15.265625 -17.578125 C 16.378906 -16.523438 16.9375 -15.023438 16.9375 -13.078125 L 16.9375 -4.90625 C 16.9375 -4.070312 17.304688 -3.65625 18.046875 -3.65625 C 18.328125 -3.65625 18.609375 -3.703125 18.890625 -3.796875 L 19.125 -3.734375 L 19.46875 -0.4375 C 19.207031 -0.269531 18.84375 -0.128906 18.375 -0.015625 C 17.90625 0.0859375 17.394531 0.140625 16.84375 0.140625 C 15.71875 0.140625 14.835938 -0.0703125 14.203125 -0.5 C 13.566406 -0.9375 13.113281 -1.617188 12.84375 -2.546875 L 12.484375 -2.578125 C 11.566406 -0.617188 9.847656 0.359375 7.328125 0.359375 Z M 8.84375 -3.171875 C 9.925781 -3.171875 10.796875 -3.535156 11.453125 -4.265625 C 12.109375 -5.003906 12.4375 -6.023438 12.4375 -7.328125 L 12.4375 -9.25 L 12.109375 -9.3125 C 11.828125 -9.082031 11.453125 -8.890625 10.984375 -8.734375 C 10.523438 -8.585938 9.863281 -8.441406 9 -8.296875 C 7.976562 -8.117188 7.242188 -7.820312 6.796875 -7.40625 C 6.347656 -7 6.125 -6.410156 6.125 -5.640625 C 6.125 -4.835938 6.363281 -4.222656 6.84375 -3.796875 C 7.320312 -3.378906 7.988281 -3.171875 8.84375 -3.171875 Z M 8.84375 -3.171875 "/></g></g></g><g fill="#f97316" fill-opacity="1"><g transform="translate(906.614518, 350.10633)"><g><path d="M 12.984375 -4.484375 L 14.203125 -0.984375 C 13.691406 -0.566406 13.050781 -0.238281 12.28125 0 C 11.507812 0.238281 10.632812 0.359375 9.65625 0.359375 C 7.625 0.359375 6.078125 -0.191406 5.015625 -1.296875 C 3.953125 -2.410156 3.421875 -4.023438 3.421875 -6.140625 L 3.421875 -15.078125 L 0.5625 -15.078125 L 0.5625 -18.828125 L 3.421875 -18.828125 L 3.421875 -22.5 L 8.15625 -23.265625 L 8.15625 -18.828125 L 13.5 -18.828125 L 13.5 -15.078125 L 8.15625 -15.078125 L 8.15625 -6.484375 C 8.15625 -5.546875 8.347656 -4.863281 8.734375 -4.4375 C 9.117188 -4.007812 9.679688 -3.796875 10.421875 -3.796875 C 11.265625 -3.796875 12 -4.023438 12.625 -4.484375 Z M 12.984375 -4.484375 "/></g></g></g><g fill="#f97316" fill-opacity="1"><g transform="translate(921.235584, 350.10633)"><g><path d="M 18.59375 -8.34375 L 6.5 -8.34375 C 6.632812 -6.707031 7.097656 -5.515625 7.890625 -4.765625 C 8.691406 -4.023438 9.78125 -3.65625 11.15625 -3.65625 C 12.238281 -3.65625 13.113281 -3.851562 13.78125 -4.25 C 14.457031 -4.65625 15 -5.269531 15.40625 -6.09375 L 15.765625 -6.09375 L 18.90625 -4.078125 C 18.289062 -2.753906 17.363281 -1.679688 16.125 -0.859375 C 14.882812 -0.046875 13.226562 0.359375 11.15625 0.359375 C 9.207031 0.359375 7.523438 -0.0078125 6.109375 -0.75 C 4.691406 -1.488281 3.597656 -2.585938 2.828125 -4.046875 C 2.066406 -5.515625 1.6875 -7.300781 1.6875 -9.40625 C 1.6875 -11.539062 2.085938 -13.34375 2.890625 -14.8125 C 3.703125 -16.28125 4.796875 -17.375 6.171875 -18.09375 C 7.546875 -18.8125 9.09375 -19.171875 10.8125 -19.171875 C 13.476562 -19.171875 15.519531 -18.460938 16.9375 -17.046875 C 18.351562 -15.640625 19.0625 -13.570312 19.0625 -10.84375 C 19.0625 -9.851562 19.023438 -9.085938 18.953125 -8.546875 Z M 14.53125 -11.390625 C 14.488281 -12.828125 14.15625 -13.867188 13.53125 -14.515625 C 12.914062 -15.171875 12.007812 -15.5 10.8125 -15.5 C 8.425781 -15.5 7.023438 -14.128906 6.609375 -11.390625 Z M 14.53125 -11.390625 "/></g></g></g><g fill="#f97316" fill-opacity="1"><g transform="translate(337.888299, 282.331608)"><g><path d="M 12.21875 -24.9375 C 16.257812 -24.9375 19.347656 -23.890625 21.484375 -21.796875 C 23.617188 -19.703125 24.6875 -16.59375 24.6875 -12.46875 C 24.6875 -8.351562 23.617188 -5.242188 21.484375 -3.140625 C 19.347656 -1.046875 16.257812 0 12.21875 0 L 3.234375 0 L 3.234375 -24.9375 Z M 11.921875 -4.140625 C 14.492188 -4.140625 16.414062 -4.796875 17.6875 -6.109375 C 18.957031 -7.429688 19.59375 -9.550781 19.59375 -12.46875 C 19.59375 -15.394531 18.957031 -17.515625 17.6875 -18.828125 C 16.414062 -20.140625 14.492188 -20.796875 11.921875 -20.796875 L 8.171875 -20.796875 L 8.171875 -4.140625 Z M 11.921875 -4.140625 "/></g></g></g><g fill="#f97316" fill-opacity="1"><g transform="translate(364.554256, 282.331608)"><g><path d="M 7.328125 0.359375 C 6.128906 0.359375 5.082031 0.140625 4.1875 -0.296875 C 3.300781 -0.742188 2.617188 -1.394531 2.140625 -2.25 C 1.671875 -3.113281 1.4375 -4.148438 1.4375 -5.359375 C 1.4375 -6.472656 1.671875 -7.40625 2.140625 -8.15625 C 2.617188 -8.914062 3.359375 -9.535156 4.359375 -10.015625 C 5.367188 -10.503906 6.679688 -10.878906 8.296875 -11.140625 C 9.421875 -11.316406 10.273438 -11.515625 10.859375 -11.734375 C 11.441406 -11.953125 11.832031 -12.195312 12.03125 -12.46875 C 12.238281 -12.738281 12.34375 -13.085938 12.34375 -13.515625 C 12.34375 -14.117188 12.132812 -14.578125 11.71875 -14.890625 C 11.300781 -15.210938 10.601562 -15.375 9.625 -15.375 C 8.570312 -15.375 7.570312 -15.140625 6.625 -14.671875 C 5.6875 -14.203125 4.867188 -13.585938 4.171875 -12.828125 L 3.84375 -12.828125 L 1.859375 -15.8125 C 2.816406 -16.875 3.984375 -17.695312 5.359375 -18.28125 C 6.734375 -18.875 8.234375 -19.171875 9.859375 -19.171875 C 12.347656 -19.171875 14.148438 -18.640625 15.265625 -17.578125 C 16.378906 -16.523438 16.9375 -15.023438 16.9375 -13.078125 L 16.9375 -4.90625 C 16.9375 -4.070312 17.304688 -3.65625 18.046875 -3.65625 C 18.328125 -3.65625 18.609375 -3.703125 18.890625 -3.796875 L 19.125 -3.734375 L 19.46875 -0.4375 C 19.207031 -0.269531 18.84375 -0.128906 18.375 -0.015625 C 17.90625 0.0859375 17.394531 0.140625 16.84375 0.140625 C 15.71875 0.140625 14.835938 -0.0703125 14.203125 -0.5 C 13.566406 -0.9375 13.113281 -1.617188 12.84375 -2.546875 L 12.484375 -2.578125 C 11.566406 -0.617188 9.847656 0.359375 7.328125 0.359375 Z M 8.84375 -3.171875 C 9.925781 -3.171875 10.796875 -3.535156 11.453125 -4.265625 C 12.109375 -5.003906 12.4375 -6.023438 12.4375 -7.328125 L 12.4375 -9.25 L 12.109375 -9.3125 C 11.828125 -9.082031 11.453125 -8.890625 10.984375 -8.734375 C 10.523438 -8.585938 9.863281 -8.441406 9 -8.296875 C 7.976562 -8.117188 7.242188 -7.820312 6.796875 -7.40625 C 6.347656 -7 6.125 -6.410156 6.125 -5.640625 C 6.125 -4.835938 6.363281 -4.222656 6.84375 -3.796875 C 7.320312 -3.378906 7.988281 -3.171875 8.84375 -3.171875 Z M 8.84375 -3.171875 "/></g></g></g><g fill="#f97316" fill-opacity="1"><g transform="translate(384.395913, 282.331608)"><g><path d="M 12.984375 -4.484375 L 14.203125 -0.984375 C 13.691406 -0.566406 13.050781 -0.238281 12.28125 0 C 11.507812 0.238281 10.632812 0.359375 9.65625 0.359375 C 7.625 0.359375 6.078125 -0.191406 5.015625 -1.296875 C 3.953125 -2.410156 3.421875 -4.023438 3.421875 -6.140625 L 3.421875 -15.078125 L 0.5625 -15.078125 L 0.5625 -18.828125 L 3.421875 -18.828125 L 3.421875 -22.5 L 8.15625 -23.265625 L 8.15625 -18.828125 L 13.5 -18.828125 L 13.5 -15.078125 L 8.15625 -15.078125 L 8.15625 -6.484375 C 8.15625 -5.546875 8.347656 -4.863281 8.734375 -4.4375 C 9.117188 -4.007812 9.679688 -3.796875 10.421875 -3.796875 C 11.265625 -3.796875 12 -4.023438 12.625 -4.484375 Z M 12.984375 -4.484375 "/></g></g></g><g fill="#f97316" fill-opacity="1"><g transform="translate(399.016978, 282.331608)"><g><path d="M 7.328125 0.359375 C 6.128906 0.359375 5.082031 0.140625 4.1875 -0.296875 C 3.300781 -0.742188 2.617188 -1.394531 2.140625 -2.25 C 1.671875 -3.113281 1.4375 -4.148438 1.4375 -5.359375 C 1.4375 -6.472656 1.671875 -7.40625 2.140625 -8.15625 C 2.617188 -8.914062 3.359375 -9.535156 4.359375 -10.015625 C 5.367188 -10.503906 6.679688 -10.878906 8.296875 -11.140625 C 9.421875 -11.316406 10.273438 -11.515625 10.859375 -11.734375 C 11.441406 -11.953125 11.832031 -12.195312 12.03125 -12.46875 C 12.238281 -12.738281 12.34375 -13.085938 12.34375 -13.515625 C 12.34375 -14.117188 12.132812 -14.578125 11.71875 -14.890625 C 11.300781 -15.210938 10.601562 -15.375 9.625 -15.375 C 8.570312 -15.375 7.570312 -15.140625 6.625 -14.671875 C 5.6875 -14.203125 4.867188 -13.585938 4.171875 -12.828125 L 3.84375 -12.828125 L 1.859375 -15.8125 C 2.816406 -16.875 3.984375 -17.695312 5.359375 -18.28125 C 6.734375 -18.875 8.234375 -19.171875 9.859375 -19.171875 C 12.347656 -19.171875 14.148438 -18.640625 15.265625 -17.578125 C 16.378906 -16.523438 16.9375 -15.023438 16.9375 -13.078125 L 16.9375 -4.90625 C 16.9375 -4.070312 17.304688 -3.65625 18.046875 -3.65625 C 18.328125 -3.65625 18.609375 -3.703125 18.890625 -3.796875 L 19.125 -3.734375 L 19.46875 -0.4375 C 19.207031 -0.269531 18.84375 -0.128906 18.375 -0.015625 C 17.90625 0.0859375 17.394531 0.140625 16.84375 0.140625 C 15.71875 0.140625 14.835938 -0.0703125 14.203125 -0.5 C 13.566406 -0.9375 13.113281 -1.617188 12.84375 -2.546875 L 12.484375 -2.578125 C 11.566406 -0.617188 9.847656 0.359375 7.328125 0.359375 Z M 8.84375 -3.171875 C 9.925781 -3.171875 10.796875 -3.535156 11.453125 -4.265625 C 12.109375 -5.003906 12.4375 -6.023438 12.4375 -7.328125 L 12.4375 -9.25 L 12.109375 -9.3125 C 11.828125 -9.082031 11.453125 -8.890625 10.984375 -8.734375 C 10.523438 -8.585938 9.863281 -8.441406 9 -8.296875 C 7.976562 -8.117188 7.242188 -7.820312 6.796875 -7.40625 C 6.347656 -7 6.125 -6.410156 6.125 -5.640625 C 6.125 -4.835938 6.363281 -4.222656 6.84375 -3.796875 C 7.320312 -3.378906 7.988281 -3.171875 8.84375 -3.171875 Z M 8.84375 -3.171875 "/></g></g></g></svg>