<svg xmlns="http://www.w3.org/2000/svg" xmlns:xlink="http://www.w3.org/1999/xlink" width="500" zoomAndPan="magnify" viewBox="0 0 375 374.999991" height="500" preserveAspectRatio="xMidYMid meet" version="1.0"><defs><clipPath id="cc4e2ba924"><path d="M 37.5 38 L 219 38 L 219 298.5 L 37.5 298.5 Z M 37.5 38 " clip-rule="nonzero"/></clipPath><clipPath id="ee641704f1"><path d="M 134.984375 123.765625 L 337.484375 123.765625 L 337.484375 327 L 134.984375 327 Z M 134.984375 123.765625 " clip-rule="nonzero"/></clipPath><clipPath id="2d3e357147"><path d="M 165 229 L 278 229 L 278 337.515625 L 165 337.515625 Z M 165 229 " clip-rule="nonzero"/></clipPath></defs><g clip-path="url(#cc4e2ba924)"><path fill="#393431" d="M 214.285156 102.019531 C 214.773438 102.566406 215.195312 103.171875 215.5 103.78125 C 216.472656 105.539062 217.078125 107.785156 216.835938 109.789062 C 216.773438 110.273438 216.53125 111.183594 216.109375 111.730469 C 215.5 116.953125 214.527344 122.050781 213.859375 127.269531 C 213.070312 133.460938 212.101562 139.59375 211.3125 145.785156 C 210.582031 151.308594 209.550781 156.832031 208.824219 162.355469 C 208.09375 167.878906 207.121094 173.402344 206.394531 178.925781 C 204.9375 189.914062 203.238281 200.839844 201.839844 211.824219 C 200.382812 222.871094 199.109375 233.980469 197.652344 245.027344 C 197.289062 247.757812 196.921875 250.492188 196.558594 253.160156 C 196.132812 256.015625 195.40625 258.746094 195.164062 261.660156 C 195.042969 263.175781 194.675781 264.632812 194.554688 266.089844 C 194.433594 267.363281 194.375 268.699219 194.253906 269.976562 C 194.007812 272.765625 193.644531 275.5 193.402344 278.289062 C 193.339844 279.019531 192.917969 279.445312 192.429688 279.566406 C 191.214844 280.597656 189.394531 281.144531 188.058594 281.75 C 186.175781 282.601562 184.355469 283.449219 182.472656 284.238281 C 178.710938 285.816406 174.945312 287.457031 171.183594 289.035156 C 167.359375 290.671875 163.53125 292.25 159.648438 293.828125 C 157.765625 294.617188 155.882812 295.40625 154 296.136719 C 152.242188 296.804688 150.238281 297.59375 148.355469 297.714844 C 147.808594 298.199219 146.898438 298.382812 146.472656 297.773438 C 145.988281 297.773438 145.441406 297.714844 144.957031 297.652344 C 143.558594 297.53125 142.164062 297.410156 140.765625 297.289062 C 137.851562 297.046875 134.878906 296.5625 131.964844 296.136719 C 129.351562 295.773438 126.683594 295.40625 124.070312 295.042969 C 121.523438 294.738281 118.910156 294.558594 116.363281 294.195312 C 111.140625 293.40625 105.917969 292.554688 100.699219 291.949219 C 95.476562 291.339844 90.316406 290.671875 85.15625 290.003906 C 79.9375 289.335938 74.777344 288.425781 69.617188 287.757812 C 69.191406 287.699219 68.886719 287.515625 68.644531 287.214844 C 68.21875 287.09375 67.914062 286.789062 67.855469 286.242188 C 65.546875 272.707031 62.695312 259.292969 60.207031 245.816406 C 58.019531 233.796875 55.894531 221.78125 53.890625 209.699219 C 51.886719 197.621094 50.128906 185.542969 48.125 173.464844 C 44.179688 149.425781 40.839844 125.207031 38.046875 100.988281 C 37.984375 100.683594 38.105469 100.441406 38.230469 100.257812 C 38.167969 99.957031 38.046875 99.652344 37.984375 99.347656 C 37.5625 98.316406 37.5 96.859375 37.621094 95.464844 C 37.742188 94.066406 37.925781 92.613281 38.351562 91.277344 C 38.53125 90.609375 38.773438 90.121094 39.078125 89.636719 C 39.019531 89.515625 39.019531 89.457031 38.957031 89.332031 C 37.742188 85.996094 38.472656 81.808594 41.140625 79.316406 C 43.328125 77.253906 46.726562 76.34375 49.582031 77.496094 C 49.519531 76.527344 50.007812 75.433594 50.550781 74.707031 C 51.464844 73.550781 52.980469 72.761719 54.4375 72.398438 C 56.441406 71.972656 58.445312 72.460938 60.082031 73.492188 C 60.082031 72.824219 60.144531 72.09375 60.207031 71.425781 C 60.386719 69.605469 60.875 67.96875 61.84375 66.390625 C 63.542969 63.535156 66.398438 61.472656 69.738281 60.988281 C 72.53125 60.5625 75.320312 61.472656 77.203125 63.476562 C 78.78125 62.324219 81.394531 62.503906 83.273438 63.113281 C 82.972656 62.746094 82.730469 62.382812 82.546875 62.019531 C 81.816406 60.867188 81.148438 59.589844 80.847656 58.253906 C 80.359375 56.011719 80.726562 53.460938 82.484375 51.761719 C 83.941406 50.363281 86.1875 49.878906 88.070312 50.546875 C 88.375 49.574219 89.042969 48.542969 89.527344 48.117188 C 90.925781 46.664062 93.351562 46.664062 95.113281 47.390625 C 96.207031 47.875 97.117188 48.605469 97.84375 49.515625 L 99.300781 46.664062 C 100.941406 43.261719 105.070312 40.652344 108.652344 41.683594 C 110.230469 42.109375 111.625 43.140625 112.535156 44.539062 C 114.175781 43.445312 116.605469 44.050781 118.183594 45.082031 C 118.183594 45.082031 118.242188 45.144531 118.242188 45.144531 C 118.242188 44.839844 118.242188 44.539062 118.242188 44.292969 C 118.363281 43.019531 119.03125 41.683594 119.761719 40.652344 C 121.402344 38.46875 124.253906 37.617188 126.863281 38.164062 C 128.078125 38.40625 129.355469 39.074219 130.203125 39.984375 C 130.445312 40.289062 130.628906 40.59375 130.808594 40.894531 C 131.601562 40.226562 132.753906 39.804688 133.601562 39.683594 C 135.605469 39.316406 137.609375 40.105469 138.886719 41.625 C 139.492188 42.292969 139.917969 43.140625 140.160156 44.050781 C 140.886719 43.503906 141.675781 43.140625 142.34375 42.960938 C 144.53125 42.292969 146.777344 43.203125 148.234375 44.839844 C 149.449219 46.238281 149.996094 47.996094 149.691406 49.757812 C 149.75 49.757812 149.8125 49.757812 149.8125 49.757812 C 150.722656 49.695312 151.753906 49.941406 152.605469 50.304688 C 153.394531 50.667969 154.183594 51.152344 154.789062 51.761719 C 155.578125 50.363281 156.976562 49.394531 158.617188 48.96875 C 160.800781 48.484375 162.925781 49.273438 164.445312 50.851562 C 164.988281 51.398438 165.414062 52.0625 165.65625 52.730469 C 167.234375 52.125 168.875 52.488281 170.273438 53.640625 C 171.363281 54.492188 172.03125 55.707031 172.273438 56.980469 C 173.0625 56.554688 173.976562 56.191406 174.644531 56.132812 C 177.253906 55.707031 179.683594 56.921875 181.078125 59.167969 C 181.867188 60.441406 182.230469 61.957031 182.050781 63.414062 C 184.71875 63.71875 187.027344 66.753906 187.148438 69.242188 C 187.148438 69.484375 187.148438 69.667969 187.148438 69.847656 C 190.730469 67.785156 195.527344 70.273438 195.953125 74.523438 C 195.953125 74.582031 195.953125 74.644531 195.953125 74.707031 C 197.832031 74.460938 200.019531 75.3125 201.355469 76.648438 C 203.601562 78.953125 203.539062 82.414062 201.597656 84.84375 C 201.597656 84.84375 201.539062 84.902344 201.539062 84.902344 C 202.8125 85.507812 203.964844 86.296875 205.058594 87.210938 C 205.117188 87.210938 205.117188 87.269531 205.117188 87.269531 C 206.210938 86.296875 207.667969 85.8125 209.1875 85.933594 C 211.613281 86.175781 213.859375 87.9375 214.226562 90.367188 C 214.226562 90.425781 214.226562 90.425781 214.226562 90.488281 C 214.773438 90.609375 215.316406 90.789062 215.742188 91.035156 C 217.140625 91.761719 218.109375 93.035156 218.535156 94.554688 C 219.75 97.953125 217.441406 101.171875 214.285156 102.019531 Z M 214.285156 102.019531 " fill-opacity="1" fill-rule="nonzero"/></g><path fill="#f2e7c9" d="M 112.476562 56.980469 C 113.992188 58.074219 115.875 57.890625 117.453125 57.101562 C 117.699219 58.011719 117.878906 58.921875 117.453125 59.894531 C 116.96875 61.046875 115.753906 61.59375 114.964844 62.445312 C 114.90625 62.503906 114.84375 62.6875 114.90625 62.808594 C 114.238281 62.445312 113.570312 62.199219 112.78125 62.078125 C 112.960938 61.230469 112.839844 60.199219 112.660156 59.46875 C 112.234375 57.710938 111.261719 56.011719 109.804688 54.855469 C 108.46875 53.765625 106.648438 53.097656 105.007812 53.824219 C 104.460938 54.066406 103.855469 54.554688 103.492188 55.097656 C 103.308594 54.855469 103.066406 54.675781 102.882812 54.429688 C 102.09375 53.703125 100.578125 52.851562 99.300781 52.914062 C 99.242188 52.550781 99.179688 52.246094 99.058594 51.941406 C 99.058594 51.882812 99 51.820312 99 51.699219 L 99.546875 50.910156 C 100.457031 49.574219 100.941406 47.996094 101.851562 46.664062 C 103.003906 44.902344 104.828125 43.6875 106.953125 43.503906 C 109.136719 43.324219 111.140625 44.660156 111.445312 46.90625 C 111.6875 48.785156 110.59375 50.363281 109.925781 52.0625 C 109.804688 52.308594 110.109375 52.671875 110.351562 52.609375 C 112.960938 52.308594 114.054688 49.394531 113.691406 47.085938 C 113.628906 46.664062 113.507812 46.296875 113.386719 45.933594 C 114.539062 46.175781 115.632812 46.296875 116.664062 46.90625 C 117.941406 47.695312 118.851562 49.273438 118.851562 50.789062 C 118.910156 54.308594 115.449219 55.402344 112.660156 56.011719 C 112.113281 56.132812 112.171875 56.738281 112.476562 56.980469 Z M 208.277344 88.789062 C 209.671875 88.605469 211.191406 89.515625 211.492188 90.910156 C 211.859375 92.488281 210.703125 93.339844 210.339844 94.734375 C 210.21875 95.34375 210.644531 95.949219 211.25 95.949219 C 212.828125 95.890625 213.738281 94.613281 214.164062 93.097656 C 214.894531 93.582031 215.5 94.25 215.804688 95.101562 C 216.472656 96.921875 215.136719 98.742188 213.4375 99.226562 C 212.828125 99.410156 212.464844 99.894531 212.402344 100.382812 C 210.644531 99.105469 208.519531 98.378906 206.332031 98.558594 C 206.273438 98.558594 206.210938 98.558594 206.152344 98.558594 C 206.03125 98.015625 205.785156 97.46875 205.605469 96.921875 C 205.605469 96.921875 205.605469 96.859375 205.605469 96.859375 C 205.542969 95.34375 205.117188 93.824219 205.363281 92.308594 C 205.664062 90.789062 206.574219 88.96875 208.277344 88.789062 Z M 203.722656 89.394531 C 203.660156 89.457031 203.660156 89.515625 203.601562 89.578125 C 203.238281 90.367188 202.996094 91.277344 202.933594 92.246094 C 202.386719 92.246094 201.960938 92.429688 201.476562 92.671875 C 200.625 93.097656 199.835938 93.644531 199.59375 94.675781 C 199.535156 94.917969 199.65625 95.222656 199.835938 95.34375 C 200.871094 95.828125 201.839844 95.523438 202.8125 95.039062 C 202.8125 95.039062 202.871094 95.039062 202.871094 94.980469 C 202.933594 95.644531 203.117188 96.3125 203.359375 96.921875 C 203.417969 97.226562 203.480469 97.527344 203.601562 97.832031 C 203.785156 98.257812 203.90625 98.742188 204.085938 99.105469 C 203.054688 99.53125 202.144531 100.199219 201.355469 101.046875 C 201.292969 101.171875 201.113281 101.351562 200.992188 101.535156 C 199.777344 100.015625 198.078125 98.742188 196.921875 98.257812 C 196.679688 98.136719 196.375 98.074219 196.074219 97.953125 C 196.132812 97.46875 195.890625 97.101562 195.648438 96.679688 C 195.527344 96.558594 195.464844 96.433594 195.464844 96.3125 C 196.863281 96.433594 198.199219 96.011719 198.199219 94.433594 C 198.199219 94.25 198.078125 94.066406 197.894531 93.945312 C 196.742188 93.277344 195.40625 93.886719 194.3125 92.976562 C 193.097656 92.003906 193.339844 90.183594 194.128906 89.03125 C 196.4375 85.8125 200.992188 87.511719 203.539062 89.332031 C 203.601562 89.394531 203.660156 89.394531 203.722656 89.394531 Z M 203.722656 89.394531 C 203.660156 89.457031 203.660156 89.515625 203.601562 89.578125 C 203.238281 90.367188 202.996094 91.277344 202.933594 92.246094 C 202.386719 92.246094 201.960938 92.429688 201.476562 92.671875 C 200.625 93.097656 199.835938 93.644531 199.59375 94.675781 C 199.535156 94.917969 199.65625 95.222656 199.835938 95.34375 C 200.871094 95.828125 201.839844 95.523438 202.8125 95.039062 C 202.8125 95.039062 202.871094 95.039062 202.871094 94.980469 C 202.933594 95.644531 203.117188 96.3125 203.359375 96.921875 C 203.417969 97.226562 203.480469 97.527344 203.601562 97.832031 C 203.785156 98.257812 203.90625 98.742188 204.085938 99.105469 C 203.054688 99.53125 202.144531 100.199219 201.355469 101.046875 C 201.292969 101.171875 201.113281 101.351562 200.992188 101.535156 C 199.777344 100.015625 198.078125 98.742188 196.921875 98.257812 C 196.679688 98.136719 196.375 98.074219 196.074219 97.953125 C 196.132812 97.46875 195.890625 97.101562 195.648438 96.679688 C 195.527344 96.558594 195.464844 96.433594 195.464844 96.3125 C 196.863281 96.433594 198.199219 96.011719 198.199219 94.433594 C 198.199219 94.25 198.078125 94.066406 197.894531 93.945312 C 196.742188 93.277344 195.40625 93.886719 194.3125 92.976562 C 193.097656 92.003906 193.339844 90.183594 194.128906 89.03125 C 196.4375 85.8125 200.992188 87.511719 203.539062 89.332031 C 203.601562 89.394531 203.660156 89.394531 203.722656 89.394531 Z M 188.179688 98.621094 C 187.269531 96.253906 185.511719 94.492188 183.082031 93.703125 C 179.984375 92.734375 176.34375 93.886719 174.21875 96.253906 C 174.15625 96.070312 174.097656 95.949219 174.035156 95.828125 C 173.792969 95.34375 173.550781 94.855469 173.246094 94.371094 C 177.433594 94.3125 181.746094 90.789062 182.414062 86.722656 C 182.414062 86.722656 182.414062 86.664062 182.414062 86.664062 C 182.597656 86.421875 182.71875 86.117188 182.960938 85.875 C 183.628906 85.144531 184.660156 84.71875 185.207031 85.753906 C 186.054688 87.390625 184.417969 89.273438 184.78125 90.972656 C 184.84375 91.214844 185.085938 91.277344 185.265625 91.277344 C 187.453125 90.789062 188.425781 88.484375 188.179688 86.296875 C 188.667969 86.296875 189.273438 86.542969 189.578125 86.785156 C 190.0625 87.210938 190.003906 87.9375 190.546875 88.363281 C 190.609375 88.421875 190.730469 88.484375 190.792969 88.542969 C 190.792969 88.605469 190.730469 88.605469 190.730469 88.667969 C 189.882812 91.09375 190.488281 94.007812 192.734375 95.464844 C 192.855469 95.523438 192.917969 95.585938 193.039062 95.644531 C 192.976562 96.011719 192.976562 96.496094 193.160156 96.921875 C 193.21875 97.164062 193.339844 97.40625 193.402344 97.589844 C 192.613281 97.589844 191.824219 97.710938 191.035156 97.953125 C 190.183594 98.195312 189.214844 98.621094 188.363281 99.167969 C 188.300781 98.984375 188.242188 98.804688 188.179688 98.621094 Z M 144.46875 92.003906 C 143.800781 91.09375 143.011719 90.246094 142.285156 89.636719 C 141.433594 88.910156 140.523438 88.300781 139.492188 87.816406 C 139.675781 87.695312 139.855469 87.511719 140.097656 87.332031 C 140.828125 86.722656 141.617188 86.421875 142.527344 86.175781 C 144.105469 85.753906 145.746094 86.117188 147.019531 87.148438 C 147.75 87.695312 148.113281 88.363281 148.539062 89.089844 C 146.960938 89.636719 145.5625 90.667969 144.46875 92.003906 Z M 123.949219 94.371094 C 123.890625 94.613281 123.769531 94.980469 123.707031 95.28125 C 123.527344 95.101562 123.402344 94.917969 123.28125 94.734375 C 122.3125 93.460938 121.15625 92.367188 119.882812 91.457031 C 119.519531 91.214844 119.15625 90.972656 118.789062 90.730469 C 118.730469 89.699219 118.851562 88.726562 119.519531 87.753906 C 119.882812 87.269531 120.308594 86.90625 120.734375 86.601562 C 120.914062 86.90625 121.15625 87.210938 121.402344 87.453125 C 122.371094 88.605469 123.828125 89.820312 125.164062 90.488281 C 125.285156 90.546875 125.589844 90.667969 125.894531 90.789062 C 125.042969 91.882812 124.316406 93.097656 123.949219 94.371094 Z M 102.335938 92.003906 C 101.609375 92.734375 100.941406 93.523438 100.394531 94.433594 C 100.335938 94.433594 100.273438 94.433594 100.273438 94.492188 C 99.121094 93.460938 97.601562 92.613281 96.570312 92.125 C 94.445312 91.15625 92.078125 90.730469 89.769531 90.972656 C 90.257812 89.089844 90.074219 87.027344 89.285156 85.207031 C 89.589844 84.597656 89.953125 84.113281 90.378906 83.628906 C 91.410156 82.476562 92.625 81.6875 94.203125 81.625 C 95.660156 81.5625 96.691406 82.230469 97.238281 83.566406 C 97.785156 84.84375 97.359375 85.933594 96.386719 86.84375 C 96.085938 87.085938 96.328125 87.695312 96.753906 87.632812 C 98.390625 87.453125 99.546875 85.753906 99.667969 84.175781 C 99.726562 83.75 99.726562 83.324219 99.667969 82.898438 C 100.335938 82.898438 101.003906 82.839844 101.546875 83.082031 C 102.519531 83.445312 103.066406 84.054688 103.550781 84.71875 C 103.429688 85.085938 103.308594 85.449219 103.308594 85.8125 C 103.1875 87.332031 103.792969 88.726562 104.949219 89.699219 C 105.070312 89.820312 105.191406 89.941406 105.375 90.0625 C 104.21875 90.488281 103.25 91.15625 102.335938 92.003906 Z M 82.183594 94.855469 C 81.695312 95.402344 81.210938 96.011719 80.785156 96.617188 C 79.875 95.707031 78.660156 94.980469 77.8125 94.492188 C 75.445312 93.15625 72.652344 92.367188 69.917969 92.671875 C 67.976562 92.855469 66.214844 93.460938 64.578125 94.371094 C 63.96875 94.066406 63.363281 93.765625 62.9375 93.035156 C 62.332031 91.945312 62.753906 90.789062 62.574219 89.636719 C 62.574219 89.578125 62.632812 89.515625 62.632812 89.457031 C 62.753906 89.332031 62.875 89.152344 62.996094 89.03125 C 63.726562 88 64.273438 86.90625 65 85.933594 C 66.457031 83.992188 68.339844 82.351562 70.707031 81.746094 C 73.015625 81.199219 75.382812 81.988281 76.71875 83.992188 C 77.386719 85.023438 77.628906 86.238281 77.628906 87.453125 C 77.628906 88 77.445312 88.605469 77.507812 89.152344 C 77.566406 89.578125 77.8125 89.757812 77.933594 90.121094 C 77.992188 90.304688 78.234375 90.488281 78.480469 90.425781 C 79.9375 89.878906 80.359375 89.03125 80.480469 87.453125 C 80.605469 86.054688 80.238281 84.539062 79.632812 83.265625 C 80.179688 83.140625 80.726562 83.082031 81.332031 83.082031 C 82.789062 83.140625 84.246094 83.75 85.277344 84.78125 C 87.28125 86.785156 87.101562 89.636719 86.007812 91.945312 C 84.609375 92.671875 83.273438 93.703125 82.183594 94.855469 Z M 61.964844 96.375 C 61.417969 96.253906 60.75 96.496094 60.570312 97.164062 C 60.265625 96.738281 59.902344 96.433594 59.539062 96.070312 C 59.234375 95.828125 58.929688 95.523438 58.625 95.34375 C 59.292969 94.855469 59.902344 94.25 60.449219 93.460938 C 60.507812 93.339844 60.570312 93.277344 60.691406 93.15625 C 60.75 93.523438 60.875 93.886719 60.996094 94.128906 C 61.296875 94.734375 61.785156 95.464844 62.390625 96.011719 C 62.269531 96.070312 62.085938 96.191406 61.964844 96.375 Z M 85.886719 63.597656 C 86.976562 62.6875 87.765625 61.472656 89.527344 61.65625 C 91.53125 61.835938 92.261719 63.171875 93.472656 64.386719 C 93.171875 64.507812 92.929688 64.628906 92.683594 64.75 C 91.410156 65.417969 90.074219 66.632812 89.285156 68.089844 C 88.433594 66.632812 87.28125 65.359375 85.945312 64.445312 C 86.007812 64.386719 86.007812 64.324219 86.007812 64.203125 C 85.945312 63.960938 85.945312 63.78125 85.886719 63.597656 Z M 97.359375 66.8125 C 99.847656 67.664062 100.941406 71.546875 97.964844 72.640625 C 96.507812 73.1875 97.117188 75.496094 98.632812 75.007812 C 100.578125 74.402344 102.035156 72.460938 102.335938 70.457031 C 102.335938 70.273438 102.398438 70.03125 102.398438 69.847656 C 102.582031 69.847656 102.824219 69.847656 103.003906 69.910156 C 103.792969 70.09375 104.585938 70.515625 105.128906 71.125 C 106.164062 72.339844 106.164062 73.917969 105.433594 75.25 C 105.007812 75.980469 104.523438 76.34375 103.917969 76.828125 C 103.492188 77.195312 102.945312 77.679688 103.066406 78.347656 C 103.371094 79.925781 105.3125 79.074219 106.101562 78.46875 C 106.890625 77.863281 107.558594 77.011719 107.984375 76.101562 C 108.042969 76.160156 108.042969 76.222656 108.105469 76.34375 C 108.46875 77.195312 108.773438 78.46875 108.710938 79.378906 C 108.710938 79.621094 108.773438 79.804688 108.957031 79.925781 C 108.710938 80.472656 108.53125 81.019531 108.46875 81.5625 C 108.164062 81.441406 107.800781 81.382812 107.375 81.441406 C 106.648438 81.503906 106.042969 81.867188 105.433594 82.292969 C 105.375 82.292969 105.375 82.351562 105.3125 82.414062 C 104.402344 81.503906 103.1875 80.835938 102.09375 80.652344 C 101.125 80.410156 99.910156 80.351562 99 80.773438 C 98.9375 80.773438 98.878906 80.835938 98.816406 80.898438 C 98.269531 80.230469 97.542969 79.683594 96.570312 79.316406 C 95.355469 78.894531 94.082031 78.832031 92.867188 79.136719 C 92.746094 79.074219 92.625 79.074219 92.441406 79.074219 C 91.53125 78.285156 90.804688 77.496094 90.378906 76.285156 C 90.925781 74.523438 90.925781 72.640625 90.5 70.882812 C 91.347656 69.667969 91.894531 68.453125 93.230469 67.601562 C 94.386719 66.632812 95.902344 66.328125 97.359375 66.8125 Z M 89.164062 78.652344 C 89.527344 79.195312 89.953125 79.742188 90.5 80.109375 C 90.316406 80.230469 90.136719 80.351562 89.953125 80.53125 C 89.101562 81.261719 88.433594 82.109375 87.949219 83.140625 C 87.828125 83.019531 87.765625 82.960938 87.644531 82.839844 C 87.222656 82.414062 86.734375 82.050781 86.1875 81.6875 C 87.402344 81.078125 88.433594 79.863281 89.164062 78.652344 Z M 107.375 89.152344 C 107.132812 89.089844 106.890625 89.03125 106.707031 88.910156 C 106.042969 88.421875 105.675781 87.148438 105.675781 86.359375 C 105.675781 86.238281 105.675781 86.117188 105.675781 86.054688 C 106.101562 85.875 106.40625 85.449219 106.40625 84.964844 C 106.40625 84.84375 106.40625 84.71875 106.40625 84.660156 C 106.527344 84.476562 106.707031 84.355469 106.890625 84.234375 C 107.253906 83.992188 107.863281 83.628906 108.410156 83.445312 C 108.589844 84.902344 109.136719 86.722656 110.714844 86.84375 C 110.835938 86.84375 111.078125 86.722656 111.078125 86.601562 C 111.261719 85.449219 110.535156 84.417969 110.714844 83.203125 C 110.898438 81.988281 111.625 80.53125 112.660156 79.863281 C 113.691406 79.195312 115.269531 79.074219 116.363281 79.5 C 117.03125 79.742188 117.453125 80.230469 118 80.652344 C 118.425781 80.957031 118.789062 80.957031 119.277344 81.078125 C 119.09375 82.292969 119.214844 83.566406 119.699219 84.78125 C 118.789062 85.023438 118 85.570312 117.394531 86.296875 C 116.664062 87.210938 116.242188 88.484375 116.300781 89.699219 C 114.480469 89.03125 112.535156 88.667969 110.59375 88.726562 C 109.5625 88.667969 108.46875 88.847656 107.375 89.152344 Z M 123.402344 62.199219 C 123.707031 62.625 124.011719 63.113281 124.4375 63.414062 C 125.042969 63.839844 125.347656 63.65625 126.015625 63.71875 C 126.316406 63.78125 126.4375 63.355469 126.316406 63.171875 C 126.136719 62.808594 126.136719 62.324219 125.894531 61.898438 C 125.46875 61.230469 125.042969 60.621094 124.859375 59.832031 C 124.496094 58.253906 125.105469 56.554688 126.441406 55.644531 C 127.714844 54.855469 129.597656 54.976562 130.6875 56.070312 C 131.722656 57.101562 131.84375 59.042969 131.539062 60.378906 C 131.417969 60.804688 131.902344 61.230469 132.265625 60.988281 C 134.089844 59.710938 134.390625 57.464844 133.421875 55.585938 C 134.515625 55.039062 135.726562 54.796875 136.820312 55.039062 C 137.125 55.585938 137.671875 55.765625 138.15625 55.644531 C 138.640625 56.011719 139.007812 56.496094 139.25 57.164062 C 139.917969 58.921875 139.128906 60.441406 137.792969 61.59375 C 136.882812 60.988281 135.726562 60.621094 134.636719 60.621094 C 131.78125 60.621094 129.230469 62.929688 129.839844 65.84375 C 128.625 64.628906 126.863281 64.023438 125.164062 64.570312 C 123.34375 65.175781 122.3125 66.390625 121.886719 67.90625 C 121.097656 66.9375 120.429688 65.964844 120.429688 64.628906 C 120.367188 63.050781 121.21875 60.925781 122.492188 60.015625 C 122.675781 60.746094 122.980469 61.535156 123.402344 62.199219 Z M 128.382812 51.578125 C 129.898438 50.484375 131.234375 49.453125 133.179688 49.273438 C 134.148438 49.210938 134.878906 49.515625 135.363281 50.121094 C 135.425781 50.183594 135.425781 50.242188 135.484375 50.304688 C 135.972656 51.03125 136.273438 52.003906 136.457031 52.914062 C 135.058594 52.792969 133.601562 53.21875 132.570312 54.371094 C 131.417969 53.15625 129.777344 52.550781 128.078125 52.671875 C 128.261719 52.308594 128.320312 51.941406 128.382812 51.578125 Z M 140.097656 62.6875 C 140.34375 63.234375 140.707031 63.71875 141.070312 64.082031 C 141.800781 64.75 142.832031 65.234375 143.863281 65.234375 C 143.558594 65.964844 143.378906 66.753906 143.257812 67.542969 C 142.648438 67.117188 141.921875 66.8125 141.191406 66.632812 C 140.828125 66.570312 140.523438 66.511719 140.160156 66.511719 C 140.21875 66.390625 140.28125 66.328125 140.34375 66.207031 C 140.644531 65.175781 140.21875 64.082031 139.550781 63.171875 C 139.734375 63.050781 139.917969 62.867188 140.097656 62.6875 Z M 152 66.875 C 151.9375 67.058594 152.121094 67.300781 152.300781 67.300781 C 154.914062 67.238281 155.214844 64.082031 154 62.382812 C 154 62.324219 153.941406 62.324219 153.941406 62.261719 C 155.09375 59.957031 158.617188 61.289062 159.949219 62.929688 C 160.617188 63.78125 161.105469 65.054688 160.742188 66.085938 C 160.316406 67.359375 158.980469 67.847656 157.828125 68.269531 C 157.460938 68.390625 157.28125 68.878906 157.582031 69.179688 C 159.285156 70.699219 161.347656 69.425781 162.5 67.90625 C 163.167969 68.269531 163.835938 68.636719 164.445312 69.304688 C 165.355469 70.273438 165.777344 71.488281 165.65625 72.824219 C 165.535156 74.21875 164.808594 75.3125 163.59375 76.039062 C 162.683594 76.585938 161.652344 76.648438 160.800781 77.253906 C 160.496094 76.039062 159.828125 74.886719 158.859375 73.976562 C 157.21875 72.398438 154.914062 71.730469 152.664062 72.09375 C 151.085938 72.339844 149.085938 73.613281 148.292969 75.191406 C 147.6875 74.828125 147.019531 74.582031 146.292969 74.402344 C 146.292969 74.402344 146.292969 74.339844 146.292969 74.339844 C 146.472656 73.066406 145.503906 71.730469 145.257812 70.394531 C 144.957031 68.695312 145.257812 66.875 146.230469 65.359375 C 147.140625 63.960938 148.839844 62.566406 150.601562 63.171875 C 152.300781 63.65625 152.542969 65.539062 152 66.875 Z M 168.390625 72.761719 C 168.390625 72.640625 168.390625 72.519531 168.390625 72.398438 C 168.390625 72.460938 168.449219 72.519531 168.511719 72.582031 C 169.542969 73.550781 170.574219 74.707031 171.910156 75.25 C 173.367188 75.859375 175.066406 76.039062 176.644531 76.039062 C 177.859375 76.039062 179.558594 75.859375 181.015625 75.3125 C 181.078125 75.496094 181.199219 75.617188 181.382812 75.675781 C 182.472656 76.222656 183.628906 77.921875 182.65625 79.015625 C 181.988281 79.804688 180.773438 79.863281 179.804688 79.925781 C 178.710938 79.074219 177.011719 78.226562 175.675781 78.527344 C 175.1875 77.679688 174.398438 77.011719 173.550781 76.527344 C 170.394531 74.828125 165.960938 76.34375 164.566406 79.5625 C 164.261719 79.257812 163.957031 78.953125 163.59375 78.710938 C 164.320312 78.40625 164.988281 77.984375 165.476562 77.617188 C 167.054688 76.464844 168.269531 74.644531 168.390625 72.761719 Z M 170.695312 91.640625 C 170.574219 91.640625 170.515625 91.699219 170.453125 91.761719 C 169.90625 91.457031 169.300781 91.15625 168.691406 90.972656 C 166.386719 90.246094 163.777344 90.730469 161.773438 92.066406 C 161.226562 92.429688 160.558594 92.976562 159.949219 93.644531 C 159.890625 93.644531 159.890625 93.644531 159.828125 93.644531 C 159.527344 92.976562 159.160156 92.367188 158.675781 91.824219 C 160.074219 92.003906 161.652344 91.519531 162.863281 90.851562 C 165.476562 89.394531 167.234375 86.480469 166.691406 83.507812 C 166.570312 82.898438 166.324219 82.230469 165.960938 81.5625 C 167.417969 79.863281 168.9375 77.863281 171.546875 78.832031 C 172.578125 79.195312 173.246094 79.984375 173.308594 81.078125 C 173.367188 82.351562 172.820312 82.898438 171.910156 83.6875 C 170.941406 84.539062 171.972656 85.933594 173.0625 85.691406 C 174.824219 85.328125 176.28125 83.140625 176.34375 81.382812 C 176.34375 81.261719 176.34375 81.140625 176.34375 81.019531 C 177.011719 81.261719 177.738281 81.503906 178.285156 82.050781 C 179.558594 83.324219 179.804688 85.085938 179.316406 86.785156 C 178.769531 88.484375 177.496094 89.878906 175.855469 90.609375 C 174.277344 91.398438 172.457031 91.214844 170.695312 91.640625 Z M 138.15625 78.285156 C 138.21875 77.984375 138.21875 77.738281 138.21875 77.496094 C 137.972656 75.433594 136.636719 73.671875 134.816406 72.761719 C 135.304688 72.339844 135.726562 71.730469 136.09375 71.246094 C 136.941406 70.214844 138.035156 69.179688 139.492188 69.121094 C 140.765625 69.121094 142.042969 69.910156 142.527344 71.0625 C 143.011719 72.15625 142.953125 73.308594 142.890625 74.460938 C 140.886719 75.070312 139.25 76.527344 138.15625 78.285156 Z M 125.648438 75.738281 C 125.589844 75.859375 125.527344 76.039062 125.527344 76.160156 C 125.40625 76.160156 125.285156 76.101562 125.164062 76.101562 C 125.164062 76.039062 125.164062 75.980469 125.164062 75.917969 C 124.4375 73.1875 122.371094 69.425781 125.46875 67.300781 C 127.773438 65.78125 129.230469 69.363281 129.71875 71.0625 C 129.777344 71.304688 130.082031 71.367188 130.203125 71.183594 C 131.902344 69.484375 131.417969 67.359375 130.082031 65.964844 C 130.144531 65.964844 130.265625 65.964844 130.265625 65.902344 C 131.234375 64.628906 133.238281 63.171875 134.9375 63.292969 C 135.789062 63.355469 136.578125 63.78125 137.125 64.386719 C 137.730469 65.054688 137.914062 65.902344 138.460938 66.570312 C 137.429688 66.8125 136.394531 67.300781 135.546875 68.089844 C 134.636719 68.878906 132.996094 70.636719 132.996094 72.09375 C 132.875 72.09375 132.691406 72.035156 132.570312 72.035156 C 129.71875 71.730469 126.984375 73.25 125.648438 75.738281 Z M 121.703125 69.304688 C 121.644531 69.726562 121.644531 70.152344 121.703125 70.578125 C 121.402344 69.847656 120.976562 69.121094 120.429688 68.453125 C 120.792969 68.878906 121.21875 69.179688 121.703125 69.304688 Z M 122.007812 72.882812 C 122.3125 74.160156 122.859375 75.371094 123.464844 76.34375 C 122.007812 76.707031 120.671875 77.738281 119.945312 79.074219 C 119.882812 79.195312 119.820312 79.378906 119.699219 79.5 C 119.519531 78.953125 119.15625 78.46875 118.667969 78.105469 C 120.488281 77.132812 121.886719 74.644531 122.007812 72.882812 Z M 127.351562 89.332031 C 126.5625 88.421875 124.984375 88 124.191406 87.332031 C 122.734375 86.054688 121.582031 84.296875 121.644531 82.292969 C 121.644531 80.59375 123.101562 78.527344 125.042969 78.710938 C 126.804688 78.894531 127.652344 80.773438 127.351562 82.351562 C 127.289062 82.597656 127.53125 82.839844 127.773438 82.65625 C 129.597656 81.441406 128.988281 78.710938 127.59375 77.316406 C 127.652344 77.253906 127.714844 77.132812 127.773438 77.074219 C 129.476562 74.28125 133.238281 74.339844 135.121094 76.890625 C 135.546875 77.496094 135.847656 78.105469 136.214844 78.710938 C 136.394531 79.015625 136.761719 79.5 137.125 79.5625 C 137.304688 79.5625 137.488281 79.5625 137.609375 79.5 C 137.488281 79.804688 137.367188 80.046875 137.246094 80.351562 C 136.636719 81.988281 136.578125 83.445312 136.820312 85.207031 C 136.882812 85.8125 137.003906 86.480469 137.183594 87.085938 C 136.09375 86.84375 134.9375 86.722656 133.785156 86.785156 C 131.417969 86.84375 129.171875 87.753906 127.351562 89.332031 Z M 151.027344 88.542969 C 150.542969 85.570312 147.140625 83.445312 144.347656 83.324219 C 142.890625 83.265625 141.253906 83.628906 140.097656 84.539062 C 139.976562 84.660156 139.796875 84.78125 139.675781 84.902344 C 139.734375 84.234375 139.796875 83.566406 139.917969 82.898438 C 140.160156 81.019531 140.886719 79.015625 142.527344 77.921875 C 144.046875 76.828125 146.414062 76.648438 147.808594 78.042969 C 149.023438 79.257812 148.660156 80.898438 149.144531 82.351562 C 149.207031 82.535156 149.449219 82.71875 149.628906 82.65625 C 152.121094 81.988281 151.332031 78.40625 150.238281 76.828125 C 150.117188 76.648438 149.996094 76.464844 149.875 76.34375 C 150.175781 76.101562 150.417969 75.859375 150.722656 75.617188 C 151.390625 75.191406 152.121094 75.007812 152.910156 74.949219 C 154.304688 74.765625 155.640625 75.128906 156.671875 76.160156 C 157.582031 77.074219 158.128906 78.40625 158.191406 79.621094 C 158.3125 81.199219 157.21875 82.476562 156.550781 83.808594 C 156.429688 84.054688 156.550781 84.476562 156.914062 84.417969 C 159.101562 84.175781 160.195312 82.050781 160.742188 80.109375 C 160.800781 79.984375 160.800781 79.863281 160.800781 79.742188 C 161.589844 80.351562 162.5 80.898438 163.109375 81.746094 C 163.957031 83.019531 164.261719 84.597656 163.957031 86.054688 C 163.59375 87.632812 162.015625 88.726562 160.558594 89.089844 C 159.769531 89.273438 158.007812 88.96875 157.21875 89.515625 C 156.976562 89.515625 156.671875 89.578125 156.429688 89.699219 C 154.914062 88.847656 152.96875 88.421875 151.027344 88.542969 Z M 185.449219 73.429688 C 185.875 73.003906 186.238281 72.519531 186.542969 72.09375 C 186.601562 72.09375 186.601562 72.09375 186.664062 72.09375 C 186.90625 72.214844 187.148438 72.277344 187.390625 72.15625 C 190.003906 71.183594 192.855469 71.914062 193.28125 74.949219 C 193.460938 76.160156 193.28125 77.4375 192.371094 78.347656 C 191.214844 79.441406 189.820312 79.441406 188.363281 79.5 C 187.9375 79.5 187.757812 80.109375 188.121094 80.351562 C 189.699219 81.441406 192.003906 80.835938 193.460938 79.804688 C 194.496094 79.136719 195.285156 78.226562 195.769531 77.132812 C 196.800781 77.132812 197.832031 77.195312 198.746094 77.738281 C 200.203125 78.527344 200.808594 79.984375 200.871094 81.5625 C 200.929688 82.597656 200.746094 83.265625 200.261719 84.113281 C 200.203125 84.175781 200.140625 84.296875 200.082031 84.417969 C 199.167969 84.175781 198.199219 84.054688 197.226562 84.113281 C 195.40625 84.234375 193.707031 84.964844 192.429688 86.175781 C 192.066406 85.449219 191.398438 84.78125 190.671875 84.539062 C 190.003906 84.296875 189.152344 84.296875 188.484375 84.597656 C 188.242188 84.71875 188.058594 84.902344 187.9375 85.085938 C 187.632812 84.296875 187.148438 83.628906 186.480469 83.140625 C 185.144531 82.230469 183.507812 82.351562 182.171875 83.265625 C 182.050781 82.839844 181.867188 82.476562 181.683594 82.109375 C 182.960938 82.050781 184.234375 81.199219 184.84375 80.109375 C 185.933594 78.285156 185.265625 76.039062 183.6875 74.949219 C 184.355469 74.460938 184.902344 73.976562 185.449219 73.429688 Z M 178.769531 60.378906 C 179.683594 61.714844 179.683594 63.414062 178.710938 64.75 C 178.226562 65.359375 177.617188 65.964844 176.949219 66.328125 C 176.160156 66.691406 175.3125 66.632812 174.582031 67.058594 C 174.15625 67.300781 174.035156 67.90625 174.398438 68.210938 C 176.222656 69.847656 179.683594 67.96875 180.894531 66.390625 C 181.140625 66.085938 181.382812 65.722656 181.5625 65.359375 C 183.203125 66.148438 184.660156 67.058594 184.78125 69.179688 C 184.84375 70.152344 184.597656 71.425781 183.992188 72.214844 C 183.992188 72.035156 183.808594 71.851562 183.628906 71.914062 C 182.351562 71.914062 181.503906 72.582031 180.347656 73.003906 C 179.195312 73.492188 177.921875 73.734375 176.644531 73.792969 C 175.371094 73.855469 174.097656 73.613281 172.882812 73.25 C 171.605469 72.882812 170.210938 72.582031 169.117188 71.730469 C 168.816406 71.488281 168.511719 71.730469 168.390625 72.035156 C 168.328125 70.273438 167.539062 68.574219 166.265625 67.359375 C 165.535156 66.632812 164.503906 66.023438 163.472656 65.78125 C 163.53125 65.480469 163.59375 65.175781 163.59375 64.8125 C 167.113281 65.78125 170.878906 63.597656 172.152344 60.199219 C 172.941406 59.710938 173.609375 58.984375 174.582031 58.742188 C 176.222656 58.316406 177.859375 58.921875 178.769531 60.378906 Z M 162.683594 52.246094 C 163.53125 53.21875 163.777344 54.675781 163.351562 55.886719 C 162.863281 57.285156 161.832031 57.832031 160.742188 58.679688 C 160.375 58.921875 160.4375 59.410156 160.863281 59.53125 C 162.683594 60.257812 164.867188 58.621094 165.71875 57.042969 C 166.144531 56.191406 166.324219 55.28125 166.265625 54.371094 C 167.359375 54.429688 168.511719 54.976562 169.117188 55.765625 C 169.90625 56.738281 169.96875 58.195312 169.542969 59.410156 C 168.632812 62.019531 165.839844 62.808594 163.410156 63.476562 C 163.167969 62.566406 162.683594 61.714844 162.015625 60.988281 C 160.558594 59.347656 158.3125 58.253906 156.125 58.378906 C 156.734375 56.980469 156.855469 55.464844 156.371094 54.007812 C 156.308594 53.824219 156.246094 53.640625 156.125 53.460938 C 157.582031 51.457031 160.742188 50.0625 162.683594 52.246094 Z M 142.527344 45.449219 C 143.800781 44.839844 145.441406 45.082031 146.472656 46.054688 C 148.902344 48.421875 146.714844 51.398438 144.589844 52.914062 C 144.289062 53.097656 144.289062 53.640625 144.714844 53.703125 C 146.65625 54.066406 148.234375 53.035156 149.144531 51.398438 C 149.207031 51.398438 149.265625 51.457031 149.328125 51.457031 C 149.933594 51.578125 150.542969 51.578125 151.085938 51.761719 C 152.421875 52.1875 153.515625 53.21875 153.941406 54.554688 C 154.304688 55.707031 154.0625 57.101562 153.457031 58.195312 C 152.96875 59.105469 152.058594 59.773438 151.390625 60.5 C 149.8125 60.136719 148.050781 60.5 146.65625 61.472656 C 146.109375 61.835938 145.625 62.261719 145.199219 62.746094 C 144.289062 62.6875 143.257812 62.808594 142.589844 62.140625 C 141.800781 61.410156 141.980469 60.378906 141.738281 59.410156 C 141.738281 59.347656 141.675781 59.226562 141.617188 59.167969 C 141.738281 58.074219 141.617188 56.980469 141.191406 56.011719 C 140.707031 55.039062 139.976562 54.25 139.066406 53.640625 C 139.128906 52.367188 138.519531 51.09375 137.792969 50.121094 C 137.792969 50.121094 137.730469 50.0625 137.730469 50.0625 C 138.703125 49.574219 139.429688 48.542969 139.855469 47.511719 C 140.949219 47.085938 141.433594 45.996094 142.527344 45.449219 Z M 133.359375 41.988281 C 134.695312 41.625 136.09375 41.988281 137.003906 43.019531 C 137.914062 44.050781 138.15625 45.449219 137.609375 46.722656 C 137.246094 47.511719 136.636719 48.117188 136.03125 48.785156 C 135.363281 48.421875 134.636719 48.058594 133.90625 47.753906 C 132.933594 47.390625 131.722656 47.328125 130.628906 47.574219 C 131.539062 46.480469 131.722656 44.839844 131.539062 43.445312 C 131.539062 43.324219 131.476562 43.140625 131.476562 43.019531 C 132.144531 42.65625 132.691406 42.171875 133.359375 41.988281 Z M 121.460938 42.65625 C 122.554688 41.199219 124.253906 40.347656 126.074219 40.59375 C 127.53125 40.835938 129.414062 42.050781 129.839844 43.566406 C 130.203125 45.082031 129.351562 46.84375 128.625 48.117188 C 128.5625 48.242188 128.5625 48.300781 128.625 48.421875 C 128.382812 48.605469 128.140625 48.847656 127.898438 49.03125 C 127.046875 47.574219 124.4375 47.453125 123.039062 47.753906 C 122.433594 47.875 121.582031 48.179688 120.855469 48.664062 C 120.671875 47.9375 120.367188 47.328125 119.945312 46.722656 C 120.1875 46.175781 120.1875 45.507812 120.429688 44.902344 C 120.671875 44.113281 120.976562 43.324219 121.460938 42.65625 Z M 118.789062 56.253906 C 120.246094 55.039062 121.035156 53.277344 121.15625 51.398438 C 121.945312 51.03125 122.613281 50.304688 123.527344 50.121094 C 124.191406 50 124.980469 50 125.589844 50.242188 C 126.074219 50.425781 126.4375 50.609375 126.863281 50.730469 C 126.804688 50.789062 126.742188 50.851562 126.683594 50.910156 C 126.195312 51.640625 125.832031 52.488281 125.589844 53.339844 C 125.589844 53.398438 125.589844 53.460938 125.527344 53.519531 C 123.769531 54.613281 122.492188 56.554688 122.433594 58.679688 C 122.433594 58.863281 122.433594 59.042969 122.433594 59.226562 C 122.3125 59.167969 122.191406 59.226562 122.066406 59.289062 C 121.097656 59.773438 119.761719 60.5 119.214844 61.472656 C 118.609375 62.566406 118.363281 63.902344 118.546875 65.113281 C 118.667969 66.148438 119.214844 67.359375 119.945312 68.210938 C 119.277344 67.542969 118.425781 67.058594 117.574219 66.875 C 117.453125 66.085938 117.210938 65.234375 116.664062 64.570312 C 116.300781 64.023438 115.875 63.597656 115.390625 63.292969 C 118.609375 64.265625 120.855469 58.378906 118.789062 56.253906 Z M 114.238281 69.605469 C 113.023438 70.757812 111.445312 69.789062 110.230469 70.578125 C 110.109375 70.636719 109.988281 70.820312 109.988281 71.003906 C 110.351562 73.550781 114.296875 72.519531 115.574219 71.488281 C 116.363281 70.882812 116.90625 70.09375 117.210938 69.242188 C 117.636719 69.425781 118.0625 69.667969 118.425781 70.03125 C 119.09375 70.757812 119.519531 71.730469 119.457031 72.703125 C 119.398438 73.671875 118.910156 74.765625 118.0625 75.3125 C 117.332031 75.859375 116.542969 75.917969 115.875 76.648438 C 114.175781 76.222656 112.476562 76.34375 110.898438 77.375 C 110.777344 77.4375 110.65625 77.558594 110.59375 77.617188 C 110.65625 76.949219 110.472656 76.285156 110.167969 75.496094 C 109.804688 74.707031 109.320312 73.792969 108.53125 73.371094 C 108.53125 72.339844 108.289062 71.304688 107.679688 70.335938 C 107.316406 69.789062 106.832031 69.304688 106.222656 68.816406 C 107.742188 66.449219 110.898438 63.292969 113.871094 65.359375 C 115.148438 66.390625 115.390625 68.515625 114.238281 69.605469 Z M 105.070312 59.589844 C 105.191406 58.558594 104.949219 57.527344 104.523438 56.617188 C 105.128906 56.253906 105.617188 55.765625 106.34375 55.765625 C 107.621094 55.707031 108.710938 56.921875 109.320312 57.890625 C 109.925781 58.863281 110.167969 59.957031 110.289062 61.109375 C 110.351562 61.472656 110.351562 61.835938 110.351562 62.261719 C 110.167969 62.324219 109.925781 62.324219 109.746094 62.382812 C 107.074219 63.171875 105.3125 65.480469 104.21875 67.90625 C 103.429688 67.601562 102.640625 67.480469 101.851562 67.542969 C 101.425781 66.632812 100.820312 65.84375 99.96875 65.296875 C 102.582031 64.8125 104.707031 62.078125 105.070312 59.589844 Z M 83.273438 54.855469 C 83.882812 53.21875 85.582031 52.308594 87.28125 52.730469 C 89.042969 53.21875 89.347656 55.039062 90.257812 56.433594 C 90.378906 56.675781 90.804688 56.800781 90.984375 56.554688 C 92.382812 54.796875 91.046875 52.367188 89.40625 51.273438 C 89.769531 50.667969 90.195312 50.304688 90.863281 50.0625 C 92.136719 49.515625 93.292969 49.210938 94.628906 49.941406 C 95.78125 50.609375 96.691406 51.820312 96.875 53.097656 C 96.996094 53.886719 96.875 54.613281 96.933594 55.402344 C 97.054688 56.375 97.238281 57.164062 96.875 58.074219 C 96.753906 58.378906 97.238281 58.558594 97.421875 58.316406 C 98.027344 57.34375 99.058594 56.496094 99.363281 55.402344 C 99.421875 55.28125 99.421875 55.160156 99.421875 55.097656 C 99.421875 55.097656 99.484375 55.097656 99.484375 55.097656 C 100.152344 55.34375 100.515625 55.644531 101.003906 56.191406 C 101.914062 57.164062 102.398438 58.132812 102.519531 59.46875 C 102.761719 62.199219 99.910156 63.597656 97.601562 64.203125 C 96.632812 63.960938 95.660156 63.960938 94.6875 64.144531 C 95.234375 61.65625 92.136719 59.289062 89.953125 59.042969 C 88.433594 58.863281 85.886719 59.652344 84.609375 61.109375 C 84.308594 60.683594 84.003906 60.257812 83.820312 59.832031 C 83.03125 58.253906 82.667969 56.496094 83.273438 54.855469 Z M 69.371094 64.203125 C 71.496094 63.597656 73.742188 64.023438 75.261719 65.722656 C 75.929688 66.449219 76.476562 67.421875 76.65625 68.390625 C 76.839844 69.363281 76.535156 70.394531 76.777344 71.367188 C 76.902344 71.914062 77.628906 72.214844 78.113281 71.914062 C 79.996094 70.699219 79.632812 68.027344 78.84375 65.964844 C 79.390625 65.78125 79.9375 65.601562 80.605469 65.660156 C 81.574219 65.722656 82.546875 65.964844 83.335938 66.449219 C 85.035156 67.359375 86.371094 68.9375 87.039062 70.757812 C 87.707031 72.582031 87.644531 74.582031 86.917969 76.40625 C 86.554688 77.316406 86.066406 78.105469 85.460938 78.894531 C 85.035156 79.5 84.488281 80.109375 84.0625 80.773438 C 83.335938 80.59375 82.605469 80.472656 81.878906 80.410156 C 80.785156 80.351562 79.207031 80.53125 78.113281 81.199219 C 76.476562 79.5625 74.167969 78.652344 71.800781 78.773438 C 68.949219 78.953125 66.398438 80.410156 64.394531 82.414062 C 64.453125 80.351562 63.96875 78.285156 62.816406 76.40625 C 62.632812 76.101562 62.390625 75.796875 62.207031 75.554688 C 62.269531 75.433594 62.269531 75.3125 62.332031 75.191406 C 62.996094 77.558594 66.335938 80.230469 68.644531 78.285156 C 68.824219 78.164062 68.703125 77.921875 68.523438 77.863281 C 66.15625 76.949219 63.847656 75.980469 63.300781 73.1875 C 63.121094 72.339844 63.121094 71.425781 63.242188 70.578125 C 63.421875 70.03125 63.664062 69.484375 63.910156 68.9375 C 65.0625 66.753906 66.945312 64.933594 69.371094 64.203125 Z M 42.355469 82.351562 C 43.691406 80.410156 46.484375 79.257812 48.730469 80.230469 C 50.613281 81.019531 52.253906 83.75 52.191406 85.753906 C 52.191406 86.117188 52.675781 86.238281 52.859375 85.933594 C 53.589844 84.660156 54.011719 83.324219 53.648438 81.808594 C 53.222656 80.289062 52.191406 78.953125 50.855469 78.105469 C 51.402344 77.496094 51.886719 76.769531 52.554688 76.222656 C 53.464844 75.496094 54.5 75.007812 55.710938 75.007812 C 58.324219 74.949219 60.449219 77.253906 61.175781 79.621094 C 62.085938 82.535156 61.359375 85.8125 60.023438 88.421875 C 59.292969 89.820312 58.445312 91.035156 57.472656 92.308594 C 57.046875 92.855469 56.683594 93.460938 56.441406 94.007812 C 56.257812 93.886719 56.015625 93.824219 55.835938 93.765625 C 53.101562 92.734375 50.007812 92.613281 47.214844 93.523438 C 46.789062 93.644531 46.363281 93.824219 45.9375 94.007812 C 45.511719 93.523438 44.96875 93.15625 44.480469 92.734375 C 43.570312 91.882812 42.78125 90.972656 42.175781 89.878906 C 40.960938 87.574219 40.898438 84.539062 42.355469 82.351562 Z M 41.933594 93.765625 C 42.476562 94.25 43.144531 94.855469 43.8125 95.222656 C 42.476562 96.253906 41.324219 97.527344 40.476562 98.984375 C 40.351562 99.167969 40.230469 99.410156 40.109375 99.59375 C 40.109375 99.53125 40.109375 99.410156 40.109375 99.347656 C 40.050781 98.136719 39.988281 96.859375 40.050781 95.644531 C 40.109375 94.492188 40.292969 93.339844 40.597656 92.1875 C 40.960938 92.792969 41.386719 93.277344 41.933594 93.765625 Z M 156.125 93.097656 C 154.609375 91.640625 152.484375 91.09375 150.417969 91.457031 C 148.355469 91.824219 146.835938 93.035156 145.867188 94.855469 C 146.109375 95.644531 146.109375 96.433594 145.925781 97.226562 C 146.292969 99.046875 146.230469 100.988281 146.292969 102.75 C 146.351562 105.539062 146.414062 108.332031 146.414062 111.183594 C 146.472656 121.199219 146.59375 131.214844 146.65625 141.230469 C 146.65625 146.269531 146.714844 151.308594 146.714844 156.40625 C 146.714844 158.957031 146.714844 161.445312 146.835938 163.992188 C 146.898438 165.9375 147.019531 168.121094 146.777344 170.125 C 146.777344 171.519531 146.835938 172.855469 146.835938 174.253906 C 146.960938 176.074219 147.019531 177.894531 147.082031 179.714844 C 147.382812 189.125 147.871094 198.53125 148.234375 207.941406 C 148.292969 210.246094 148.355469 212.613281 148.476562 214.921875 C 148.539062 217.226562 148.355469 219.59375 148.417969 221.902344 C 148.476562 224.207031 148.539062 226.574219 148.660156 228.882812 C 148.71875 230.277344 149.144531 232.585938 148.476562 234.039062 C 148.539062 235.011719 148.539062 235.984375 148.597656 236.953125 C 148.660156 239.746094 148.71875 242.539062 148.78125 245.332031 C 148.902344 250.914062 148.960938 256.558594 149.085938 262.144531 C 149.144531 264.9375 148.902344 267.730469 148.960938 270.519531 C 149.023438 273.3125 149.328125 276.167969 149.085938 278.898438 C 148.71875 284.117188 149.328125 289.398438 149.507812 294.617188 C 150.601562 294.011719 151.753906 293.464844 152.910156 292.917969 C 154.121094 292.3125 155.398438 291.765625 156.671875 291.21875 C 156.492188 287.820312 156.613281 284.359375 156.671875 280.960938 C 156.734375 277.378906 156.734375 273.859375 156.792969 270.277344 C 156.855469 263.054688 156.976562 255.890625 156.914062 248.667969 C 156.734375 235.863281 157.035156 222.992188 157.339844 210.246094 C 157.703125 197.4375 157.644531 184.632812 157.828125 171.824219 C 157.949219 159.015625 158.128906 146.207031 158.25 133.402344 C 158.371094 121.746094 158.128906 109.972656 158.859375 98.316406 C 158.128906 96.433594 157.582031 94.492188 156.125 93.097656 Z M 150.664062 143.539062 C 150.664062 138.4375 150.664062 133.339844 150.664062 128.242188 C 150.664062 125.8125 150.664062 123.386719 150.722656 121.019531 C 150.722656 118.347656 151.027344 115.859375 151.269531 113.25 C 151.332031 112.824219 151.875 112.824219 151.875 113.25 C 152.121094 115.859375 152.484375 118.410156 152.484375 121.019531 C 152.542969 123.507812 152.542969 126.058594 152.605469 128.546875 C 152.664062 133.582031 152.664062 138.5625 152.726562 143.597656 C 152.789062 153.675781 153.515625 163.933594 152.242188 173.949219 C 152.179688 174.554688 151.453125 174.496094 151.332031 173.949219 C 149.996094 163.933594 150.664062 153.613281 150.664062 143.539062 Z M 153.515625 260.75 C 153.515625 261.171875 152.910156 261.171875 152.910156 260.75 C 151.9375 251.703125 151.574219 242.660156 151.511719 233.617188 C 151.511719 229.0625 151.574219 224.449219 151.511719 219.898438 C 151.511719 217.652344 151.453125 215.40625 151.453125 213.160156 C 151.453125 210.914062 151.695312 208.667969 151.753906 206.421875 C 151.753906 205.996094 152.363281 205.996094 152.421875 206.421875 C 152.605469 208.789062 152.96875 211.097656 153.03125 213.402344 C 153.089844 215.648438 153.152344 217.894531 153.210938 220.140625 C 153.332031 224.632812 153.578125 229.125 153.757812 233.554688 C 154.121094 242.660156 154.121094 251.703125 153.515625 260.75 Z M 182.109375 97.101562 C 179.378906 96.011719 176.707031 97.648438 175.007812 99.773438 C 175.554688 102.6875 175.1875 105.785156 175.128906 108.757812 C 175.066406 112.21875 175.007812 115.675781 174.945312 119.136719 C 174.765625 125.996094 174.644531 132.792969 174.460938 139.652344 C 173.792969 164.359375 173.125 189.0625 172.578125 213.765625 C 172.09375 237.5625 171.304688 261.417969 170.695312 285.210938 C 172.578125 284.421875 174.519531 283.632812 176.402344 282.78125 C 176.523438 276.289062 177.011719 269.730469 177.3125 263.238281 C 177.617188 256.621094 177.859375 249.945312 178.226562 243.328125 C 179.4375 219.472656 180.59375 195.617188 182.050781 171.761719 C 182.777344 159.988281 183.386719 148.210938 184.113281 136.4375 C 184.476562 130.425781 184.84375 124.480469 185.207031 118.46875 C 185.386719 115.496094 185.386719 112.460938 185.753906 109.484375 C 185.933594 107.605469 186.175781 105.722656 186.359375 103.839844 C 186.117188 102.566406 186.117188 101.292969 185.386719 100.199219 C 184.660156 98.925781 183.507812 97.648438 182.109375 97.101562 Z M 181.320312 125.023438 C 181.140625 127.636719 180.714844 130.246094 180.472656 132.792969 C 180.046875 137.773438 179.683594 142.808594 179.378906 147.847656 C 179.074219 152.886719 179.136719 157.863281 178.953125 162.902344 C 178.769531 168.121094 178.226562 173.28125 177.496094 178.5 C 177.433594 179.109375 176.523438 179.167969 176.523438 178.5 C 176.402344 173.28125 176.464844 168.121094 176.890625 162.902344 C 177.3125 157.863281 177.921875 152.886719 178.226562 147.847656 C 178.527344 142.871094 178.710938 137.832031 178.890625 132.792969 C 178.953125 130.183594 178.890625 127.574219 178.953125 125.023438 C 179.015625 122.535156 179.074219 119.988281 179.925781 117.621094 C 180.105469 117.074219 180.957031 117.011719 181.140625 117.621094 C 181.746094 120.046875 181.5625 122.535156 181.320312 125.023438 Z M 213.859375 109.789062 C 213.679688 108.757812 213.558594 107.785156 213.195312 106.816406 C 212.585938 104.992188 211.433594 103.414062 209.734375 102.445312 C 208.03125 101.472656 206.273438 101.414062 204.449219 102.082031 C 203.539062 102.382812 202.933594 102.871094 202.265625 103.539062 C 202.265625 103.539062 202.203125 103.597656 202.203125 103.597656 C 202.507812 104.449219 202.507812 105.238281 202.144531 105.964844 C 202.144531 108.152344 201.839844 110.394531 201.660156 112.582031 C 201.414062 115.738281 201.113281 118.894531 200.808594 122.113281 C 200.203125 128.605469 199.59375 135.160156 199.046875 141.65625 C 196.984375 164.601562 194.980469 187.484375 192.855469 210.429688 C 190.792969 233.128906 188.847656 255.832031 186.601562 278.535156 C 186.664062 278.472656 186.785156 278.472656 186.84375 278.410156 C 188.058594 277.925781 189.394531 277.257812 190.730469 277.015625 C 191.09375 274.222656 191.460938 271.371094 191.945312 268.640625 C 192.25 267 192.550781 265.363281 192.613281 263.722656 C 192.734375 262.144531 193.097656 260.566406 193.160156 258.988281 C 193.402344 252.796875 194.3125 246.605469 195.101562 240.414062 C 198.015625 218.378906 201.234375 196.347656 204.148438 174.253906 C 205.605469 163.203125 207.304688 152.21875 208.882812 141.230469 C 209.671875 135.707031 210.703125 130.246094 211.554688 124.722656 C 212.28125 119.925781 212.949219 115.132812 213.859375 110.394531 C 213.921875 110.214844 213.921875 109.972656 213.859375 109.789062 Z M 198.925781 186.453125 C 198.5 191.003906 197.832031 195.558594 197.53125 200.109375 C 197.226562 204.601562 196.800781 209.03125 196.316406 213.523438 C 195.769531 218.078125 195.222656 222.628906 194.738281 227.183594 C 194.3125 231.492188 194.496094 235.921875 193.460938 240.109375 C 193.339844 240.535156 192.671875 240.414062 192.671875 239.988281 C 192.492188 235.496094 193.707031 231.066406 194.070312 226.574219 C 194.433594 222.144531 194.859375 217.652344 195.222656 213.160156 C 195.585938 208.851562 196.011719 204.539062 196.679688 200.230469 C 197.347656 195.679688 197.652344 191.003906 198.078125 186.390625 C 198.199219 185.96875 198.988281 185.90625 198.925781 186.453125 Z M 207.789062 112.945312 C 207.183594 122.234375 206.453125 131.703125 204.695312 140.867188 C 204.632812 141.109375 204.269531 141.050781 204.269531 140.808594 C 204.390625 131.460938 205.605469 122.109375 206.878906 112.824219 C 206.941406 112.277344 207.789062 112.398438 207.789062 112.945312 Z M 86.25 172.976562 C 85.097656 160.59375 83.820312 148.210938 82.730469 135.828125 C 82.183594 129.578125 81.636719 123.386719 81.089844 117.132812 C 80.847656 114.039062 80.90625 111.003906 80.605469 107.90625 C 80.421875 105.964844 80.179688 104.082031 80.058594 102.140625 C 79.816406 102.140625 79.570312 101.960938 79.449219 101.714844 C 79.207031 100.988281 79.085938 100.683594 79.269531 99.894531 C 79.269531 99.773438 79.328125 99.652344 79.390625 99.53125 C 78.480469 98.804688 77.75 97.769531 76.777344 97.101562 C 74.957031 95.949219 72.773438 95.34375 70.585938 95.464844 C 68.460938 95.585938 66.277344 96.496094 64.636719 97.832031 C 63.910156 98.4375 63.242188 99.167969 62.574219 99.894531 C 62.332031 102.382812 62.085938 104.871094 62.148438 107.421875 C 62.207031 110.882812 62.632812 114.21875 63.121094 117.621094 C 64.152344 124.539062 65 131.460938 65.910156 138.378906 C 67.550781 150.820312 69.433594 163.203125 71.132812 175.648438 C 72.832031 188.03125 74.472656 200.414062 76.109375 212.855469 C 79.390625 237.621094 82.605469 262.386719 85.886719 287.152344 C 86.371094 287.214844 86.917969 287.273438 87.402344 287.335938 C 90.4375 287.699219 93.472656 288.125 96.570312 288.546875 C 95.296875 274.832031 94.082031 261.171875 92.867188 247.457031 C 90.621094 222.691406 88.558594 197.863281 86.25 172.976562 Z M 80.238281 202.355469 C 79.269531 196.769531 78.296875 191.1875 77.628906 185.542969 C 76.960938 179.777344 76.109375 174.007812 75.382812 168.304688 C 74.652344 162.71875 74.167969 157.136719 73.621094 151.550781 C 73.378906 148.757812 73.074219 145.964844 72.832031 143.175781 C 72.53125 140.199219 72.042969 137.226562 72.347656 134.25 C 72.40625 133.886719 72.894531 133.765625 73.015625 134.191406 C 73.988281 136.859375 74.167969 139.835938 74.53125 142.628906 C 74.898438 145.417969 75.261719 148.210938 75.625 151.003906 C 76.355469 156.648438 77.203125 162.292969 77.75 168 C 78.296875 173.644531 78.722656 179.351562 79.390625 184.996094 C 79.996094 190.761719 80.300781 196.527344 80.664062 202.296875 C 80.605469 202.539062 80.238281 202.597656 80.238281 202.355469 Z M 91.773438 287.214844 C 91.714844 287.515625 91.289062 287.578125 91.167969 287.273438 C 89.40625 283.632812 89.347656 279.382812 88.859375 275.4375 C 88.375 271.371094 87.890625 267.304688 87.644531 263.238281 C 87.34375 259.050781 86.613281 254.921875 86.25 250.734375 C 85.886719 246.542969 85.339844 242.417969 85.035156 238.230469 C 85.035156 237.863281 85.582031 237.804688 85.644531 238.167969 C 86.371094 242.355469 86.855469 246.605469 87.585938 250.855469 C 88.253906 254.859375 88.558594 258.988281 89.285156 262.996094 C 90.015625 267.0625 90.558594 271.066406 91.105469 275.132812 C 91.652344 279.140625 92.625 283.269531 91.773438 287.214844 Z M 124.011719 173.523438 C 123.707031 160.714844 123.402344 147.910156 123.101562 135.039062 C 122.917969 128.667969 122.613281 122.292969 122.433594 115.980469 C 122.3125 112.703125 122.25 109.425781 122.128906 106.148438 C 122.070312 103.414062 121.945312 100.804688 122.25 98.074219 C 121.824219 97.710938 121.460938 97.226562 121.15625 96.800781 C 120.308594 95.890625 119.398438 95.039062 118.425781 94.3125 C 116.421875 92.734375 113.933594 91.640625 111.382812 91.457031 C 108.773438 91.277344 106.164062 92.003906 104.28125 93.886719 C 103.429688 94.675781 102.824219 95.644531 102.335938 96.679688 C 102.214844 96.921875 102.15625 97.226562 102.035156 97.46875 C 102.882812 103.839844 103.066406 110.273438 103.550781 116.648438 C 104.097656 123.75 104.460938 130.851562 104.949219 137.953125 C 105.859375 150.761719 106.890625 163.507812 107.5 176.316406 C 108.042969 189.125 109.078125 201.929688 110.046875 214.679688 C 111.992188 239.988281 113.507812 265.300781 114.90625 290.671875 C 116.242188 290.792969 117.515625 290.976562 118.851562 291.097656 C 121.460938 291.402344 124.011719 291.949219 126.621094 292.3125 C 126.863281 292.371094 127.167969 292.371094 127.410156 292.433594 C 126.984375 278.410156 126.316406 264.390625 126.136719 250.367188 C 125.710938 224.753906 124.617188 199.140625 124.011719 173.523438 Z M 112.78125 150.945312 C 112.476562 147.363281 112.234375 143.71875 111.992188 140.140625 C 111.6875 136.617188 111.746094 133.097656 111.261719 129.578125 C 110.777344 125.996094 110.535156 122.355469 110.351562 118.773438 C 110.289062 117.011719 110.167969 115.253906 110.109375 113.492188 C 110.046875 112.640625 109.988281 111.851562 110.046875 111.003906 C 110.109375 110.09375 110.351562 109.183594 110.472656 108.210938 C 110.472656 108.027344 110.777344 107.96875 110.835938 108.152344 C 111.078125 109.121094 111.445312 110.03125 111.625 111.0625 C 111.746094 111.792969 111.746094 112.519531 111.808594 113.1875 C 111.929688 115.007812 112.050781 116.890625 112.171875 118.710938 C 112.414062 122.234375 112.597656 125.753906 112.535156 129.273438 C 112.476562 132.855469 112.902344 136.496094 113.082031 140.078125 C 113.203125 143.660156 113.449219 147.300781 113.570312 150.882812 C 113.570312 151.429688 112.839844 151.367188 112.78125 150.945312 Z M 121.15625 267.609375 C 121.097656 267.910156 120.671875 267.851562 120.613281 267.609375 C 119.03125 262.386719 119.398438 256.804688 119.15625 251.402344 C 118.910156 245.9375 118.488281 240.476562 118.0625 235.011719 C 117.152344 224.027344 116.242188 212.976562 115.753906 201.929688 C 115.753906 201.445312 116.484375 201.445312 116.542969 201.929688 C 117.699219 212.917969 118.304688 223.964844 119.03125 235.011719 C 119.398438 240.476562 119.761719 245.9375 120.308594 251.402344 C 120.792969 256.804688 121.945312 262.265625 121.15625 267.609375 Z M 121.15625 267.609375 " fill-opacity="1" fill-rule="nonzero"/><path fill="#d87152" d="M 106.585938 210.308594 C 105.917969 197.5 104.949219 184.753906 103.976562 171.945312 C 103.003906 159.257812 102.398438 146.574219 101.671875 133.886719 C 101.304688 127.453125 100.757812 121.019531 100.457031 114.585938 C 100.214844 109.546875 99.667969 104.507812 99.605469 99.46875 C 99.363281 99.046875 99.242188 98.558594 99.300781 98.015625 C 98.9375 97.648438 98.574219 97.164062 98.210938 96.738281 C 97.421875 95.949219 96.570312 95.34375 95.597656 94.855469 C 93.71875 93.886719 91.53125 93.523438 89.46875 93.886719 C 88.980469 93.945312 88.558594 94.066406 88.132812 94.25 C 88.070312 94.3125 87.949219 94.433594 87.890625 94.492188 C 87.585938 94.796875 87.101562 94.917969 86.675781 94.855469 C 85.703125 95.34375 84.792969 96.070312 84.003906 96.859375 C 83.335938 97.527344 82.730469 98.316406 82.304688 99.167969 C 82.304688 99.410156 82.242188 99.652344 82.183594 99.894531 C 82.667969 102.75 82.789062 105.660156 83.09375 108.515625 C 83.457031 112.097656 84.0625 115.554688 84.429688 119.136719 C 85.097656 126.117188 85.824219 133.097656 86.433594 140.078125 C 88.558594 164.964844 90.925781 189.792969 93.351562 214.617188 C 95.84375 239.441406 98.210938 264.328125 100.515625 289.15625 C 101.425781 289.277344 102.398438 289.398438 103.308594 289.519531 C 106.164062 289.882812 109.078125 290.1875 111.929688 290.492188 C 110.898438 276.46875 109.5625 262.449219 108.894531 248.425781 C 108.226562 235.679688 107.253906 222.992188 106.585938 210.308594 Z M 95.597656 162.050781 C 95.597656 162.355469 95.175781 162.414062 95.113281 162.113281 C 93.535156 155.132812 93.230469 147.910156 92.320312 140.808594 C 91.835938 137.164062 91.472656 133.582031 91.167969 129.941406 C 90.984375 128.058594 90.742188 126.179688 90.5 124.355469 C 90.257812 122.65625 89.890625 120.835938 90.074219 119.078125 C 90.195312 118.226562 91.289062 117.984375 91.59375 118.894531 C 92.136719 120.53125 92.199219 122.414062 92.320312 124.113281 C 92.441406 125.996094 92.5625 127.816406 92.804688 129.699219 C 93.230469 133.21875 93.59375 136.738281 93.898438 140.320312 C 94.507812 147.484375 95.78125 154.765625 95.597656 162.050781 Z M 99.484375 212.675781 C 99.484375 213.097656 98.816406 213.222656 98.757812 212.796875 C 98.148438 210.429688 98.089844 207.878906 97.84375 205.453125 C 97.601562 202.960938 97.300781 200.414062 97.117188 197.925781 C 96.753906 192.824219 96.085938 187.667969 96.023438 182.566406 C 96.023438 182.144531 96.753906 182.023438 96.8125 182.445312 C 97.664062 187.363281 97.90625 192.402344 98.453125 197.378906 C 98.695312 199.867188 98.878906 202.417969 99.058594 204.90625 C 99.242188 207.394531 99.605469 210.066406 99.484375 212.675781 Z M 145.988281 278.835938 C 145.867188 277.683594 145.804688 276.46875 145.804688 275.316406 C 145.804688 275.316406 145.804688 275.253906 145.804688 275.253906 C 145.503906 271.613281 145.441406 267.910156 145.378906 264.269531 C 145.320312 263.539062 145.320312 262.8125 145.257812 262.082031 C 145.136719 256.5 145.015625 250.855469 144.835938 245.269531 C 144.773438 242.476562 144.714844 239.6875 144.652344 236.894531 C 144.652344 234.828125 144.589844 232.828125 144.835938 230.824219 C 144.773438 225.058594 144.652344 219.351562 144.589844 213.585938 C 144.589844 213.523438 144.589844 213.464844 144.589844 213.464844 C 144.53125 211.15625 144.410156 208.789062 144.347656 206.484375 C 144.226562 201.75 144.105469 196.953125 144.046875 192.21875 C 143.921875 187.546875 143.800781 182.933594 143.679688 178.257812 C 143.621094 175.953125 143.621094 173.585938 143.621094 171.277344 C 143.621094 171.277344 143.621094 171.277344 143.621094 171.21875 C 143.074219 168.546875 143.316406 165.511719 143.316406 162.78125 C 143.378906 159.988281 143.316406 157.195312 143.316406 154.34375 C 143.257812 144.328125 143.195312 134.3125 143.257812 124.296875 C 143.257812 124.175781 143.257812 124.054688 143.257812 123.933594 C 143.132812 115.617188 142.953125 107.300781 142.953125 99.046875 C 142.890625 98.863281 142.890625 98.742188 142.832031 98.679688 C 142.710938 97.832031 142.710938 96.980469 142.832031 96.132812 C 142.648438 95.644531 142.464844 95.160156 142.222656 94.734375 C 141.675781 93.703125 140.949219 92.792969 140.039062 92.003906 C 138.398438 90.546875 136.214844 89.636719 133.96875 89.699219 C 131.660156 89.757812 129.476562 90.972656 127.773438 92.550781 C 126.863281 93.402344 126.195312 94.371094 125.589844 95.402344 C 125.164062 96.191406 124.921875 97.101562 124.496094 97.890625 C 124.4375 98.074219 124.4375 98.257812 124.375 98.4375 C 124.375 98.558594 124.316406 98.621094 124.253906 98.679688 C 124.738281 101.65625 124.738281 104.628906 124.800781 107.605469 C 124.921875 111.246094 125.105469 114.886719 125.042969 118.53125 C 124.980469 125.632812 125.46875 132.792969 125.773438 139.835938 C 126.742188 165.449219 127.773438 191.125 128.503906 216.742188 C 129.230469 242.113281 130.203125 267.546875 130.992188 292.917969 C 132.207031 293.039062 133.359375 293.160156 134.574219 293.34375 C 137.125 293.648438 139.675781 293.949219 142.222656 294.375 C 143.4375 294.558594 144.652344 294.800781 145.925781 295.042969 C 145.746094 292.191406 146.046875 289.335938 146.046875 286.484375 C 146.046875 284.117188 146.046875 281.8125 145.925781 279.503906 C 146.046875 279.261719 145.988281 279.078125 145.988281 278.835938 Z M 135.058594 204.480469 C 135 204.785156 134.453125 204.785156 134.390625 204.480469 C 133.359375 198.410156 133.359375 192.339844 133.359375 186.210938 C 133.359375 175.101562 133.601562 163.992188 133.421875 152.886719 C 133.238281 141.898438 133.300781 130.851562 133.238281 119.867188 C 133.238281 119.621094 133.601562 119.621094 133.664062 119.867188 C 133.847656 126.117188 133.96875 132.371094 134.148438 138.621094 C 134.453125 149.730469 134.816406 160.835938 135.179688 171.945312 C 135.363281 177.46875 135.484375 182.933594 135.667969 188.457031 C 135.789062 193.796875 135.789062 199.140625 135.058594 204.480469 Z M 66.578125 170.671875 C 64.941406 158.105469 63.542969 145.601562 61.84375 133.039062 C 60.996094 127.027344 60.023438 120.957031 59.71875 114.886719 C 59.539062 110.882812 59.171875 106.816406 59.539062 102.75 C 59.476562 102.6875 59.417969 102.566406 59.417969 102.445312 C 59.355469 101.472656 59.417969 100.625 59.71875 99.773438 C 59.417969 99.773438 59.171875 99.714844 58.871094 99.46875 C 58.445312 99.167969 58.082031 98.804688 57.65625 98.5 C 56.804688 97.832031 55.773438 97.347656 54.742188 96.980469 C 52.675781 96.191406 50.429688 96.011719 48.304688 96.679688 C 46.058594 97.347656 44.054688 98.863281 42.78125 100.804688 C 41.992188 101.960938 41.566406 103.234375 41.140625 104.507812 C 42.84375 116.832031 44.542969 129.152344 46.242188 141.472656 C 49.582031 165.632812 53.34375 189.792969 57.472656 213.828125 C 59.539062 225.785156 61.601562 237.742188 63.789062 249.703125 C 65.972656 261.660156 67.976562 273.675781 70.648438 285.515625 C 71.617188 285.636719 72.652344 285.757812 73.621094 285.878906 C 73.015625 283.449219 72.710938 280.960938 72.285156 278.535156 C 71.800781 275.558594 71.074219 272.402344 71.253906 269.367188 C 71.253906 269.1875 71.496094 269.1875 71.558594 269.308594 C 72.773438 272.21875 73.195312 275.558594 73.742188 278.714844 C 74.167969 281.082031 74.652344 283.570312 74.898438 286 C 77.203125 286.242188 79.511719 286.484375 81.816406 286.726562 C 79.996094 273.007812 78.234375 259.351562 76.414062 245.632812 C 73.195312 220.6875 69.796875 195.679688 66.578125 170.671875 Z M 57.65625 163.386719 C 56.320312 156.832031 54.921875 150.277344 53.769531 143.71875 C 53.164062 140.441406 52.617188 137.105469 52.191406 133.765625 C 51.707031 130.546875 51.523438 127.332031 51.097656 124.175781 C 51.039062 123.691406 51.828125 123.628906 51.886719 124.054688 C 52.496094 127.453125 53.40625 130.730469 53.953125 134.128906 C 54.5 137.347656 55.046875 140.5625 55.46875 143.78125 C 56.441406 150.277344 57.109375 156.769531 57.898438 163.324219 C 57.898438 163.449219 57.65625 163.507812 57.65625 163.386719 Z M 67.246094 234.828125 C 66.09375 230.703125 65.425781 226.515625 64.757812 222.265625 C 64.089844 218.078125 63.363281 213.828125 62.632812 209.640625 C 61.90625 205.453125 60.996094 201.261719 60.265625 197.074219 C 59.902344 194.949219 59.597656 192.824219 59.292969 190.761719 C 59.050781 188.941406 58.503906 186.9375 58.871094 185.117188 C 58.992188 184.632812 59.71875 184.570312 59.902344 184.996094 C 60.933594 186.757812 61.054688 189.0625 61.417969 191.066406 C 61.785156 193.070312 62.148438 195.070312 62.453125 197.074219 C 63.058594 201.324219 63.605469 205.574219 64.273438 209.820312 C 64.941406 214.070312 65.609375 218.257812 66.335938 222.445312 C 67.066406 226.515625 67.734375 230.582031 67.976562 234.707031 C 67.976562 235.132812 67.367188 235.195312 67.246094 234.828125 Z M 172.519531 101.714844 C 171.304688 98.804688 171.304688 94.917969 167.722656 93.765625 C 166.144531 93.277344 164.382812 93.644531 162.988281 94.433594 C 162.320312 94.855469 161.710938 95.34375 161.226562 95.949219 C 162.015625 109.972656 161.347656 124.113281 161.226562 138.136719 C 160.984375 163.75 160.800781 189.425781 160.617188 215.042969 C 160.558594 227.847656 160.496094 240.65625 160.132812 253.464844 C 159.949219 259.898438 160.011719 266.394531 159.949219 272.828125 C 159.890625 278.472656 160.132812 284.238281 159.769531 289.882812 C 162.199219 288.851562 164.625 287.820312 167.054688 286.789062 C 167.480469 273.3125 167.902344 259.777344 168.269531 246.300781 C 168.996094 221.597656 169.847656 196.894531 170.515625 172.1875 C 170.816406 159.867188 171.304688 147.484375 171.667969 135.160156 C 171.851562 128.96875 172.09375 122.839844 172.273438 116.648438 C 172.398438 113.550781 172.519531 110.457031 172.640625 107.363281 C 172.699219 105.539062 172.640625 103.660156 172.882812 101.835938 C 172.699219 101.898438 172.578125 101.835938 172.519531 101.714844 Z M 165.902344 192.644531 C 165.902344 200.109375 165.777344 207.699219 164.867188 215.164062 C 164.808594 215.527344 164.382812 215.527344 164.320312 215.164062 C 163.59375 207.699219 163.59375 200.109375 163.714844 192.644531 C 163.835938 185.117188 164.019531 177.652344 164.566406 170.125 C 164.625 169.578125 165.414062 169.578125 165.414062 170.125 C 165.902344 177.652344 165.902344 185.179688 165.902344 192.644531 Z M 195.769531 101.109375 C 194.496094 100.441406 192.976562 100.320312 191.582031 100.5625 C 190.546875 100.804688 189.699219 101.351562 188.847656 101.777344 C 188.847656 102.261719 188.789062 102.75 188.667969 103.171875 C 188.667969 105.660156 188.726562 108.152344 188.605469 110.578125 C 188.425781 113.917969 188.300781 117.316406 188.121094 120.65625 C 187.816406 127.269531 187.574219 133.949219 187.269531 140.5625 C 186.054688 164.417969 184.964844 188.273438 183.871094 212.128906 C 183.324219 223.902344 182.472656 235.679688 181.867188 247.457031 C 181.5625 253.464844 181.078125 259.414062 180.773438 265.421875 C 180.472656 270.703125 180.289062 276.042969 179.863281 281.324219 C 180.347656 281.144531 180.835938 280.902344 181.261719 280.71875 C 181.804688 280.476562 182.414062 280.234375 182.960938 280.050781 C 182.960938 279.988281 182.960938 279.867188 182.960938 279.808594 C 184.054688 266.757812 185.386719 253.707031 186.601562 240.65625 C 188.789062 217.710938 190.851562 194.828125 193.039062 171.882812 C 194.128906 160.351562 195.34375 148.757812 196.4375 137.226562 C 196.984375 131.460938 197.53125 125.691406 198.078125 119.867188 C 198.320312 116.953125 198.625 114.097656 198.925781 111.183594 C 199.109375 109.363281 199.230469 107.484375 199.535156 105.660156 C 199.167969 105.054688 198.988281 104.449219 198.625 103.78125 C 197.957031 102.6875 196.984375 101.714844 195.769531 101.109375 Z M 189.335938 170.609375 C 189.394531 173.949219 189.394531 177.285156 189.214844 180.625 C 189.03125 184.085938 188.667969 187.484375 188.363281 190.945312 C 188.058594 194.101562 188.058594 197.316406 187.574219 200.472656 C 187.511719 200.839844 187.027344 200.71875 187.027344 200.414062 C 186.84375 197.015625 187.210938 193.554688 187.269531 190.09375 C 187.332031 186.878906 187.332031 183.601562 187.511719 180.382812 C 187.695312 177.164062 188 173.949219 188.425781 170.792969 C 188.847656 167.332031 188.910156 163.8125 189.152344 160.351562 C 189.152344 159.988281 189.757812 159.988281 189.757812 160.351562 C 189.578125 163.75 189.214844 167.210938 189.335938 170.609375 Z M 189.335938 170.609375 " fill-opacity="1" fill-rule="nonzero"/><g clip-path="url(#ee641704f1)"><path fill="#f7ce64" d="M 337.472656 225.019531 C 337.472656 226.675781 337.433594 228.332031 337.351562 229.988281 C 337.269531 231.644531 337.148438 233.296875 336.984375 234.945312 C 336.824219 236.59375 336.621094 238.238281 336.378906 239.878906 C 336.132812 241.515625 335.851562 243.148438 335.527344 244.773438 C 335.203125 246.398438 334.839844 248.015625 334.4375 249.621094 C 334.035156 251.230469 333.59375 252.828125 333.113281 254.414062 C 332.632812 256 332.113281 257.570312 331.554688 259.132812 C 330.996094 260.691406 330.402344 262.238281 329.765625 263.769531 C 329.132812 265.300781 328.460938 266.8125 327.753906 268.3125 C 327.042969 269.808594 326.300781 271.289062 325.519531 272.75 C 324.738281 274.210938 323.921875 275.652344 323.070312 277.074219 C 322.21875 278.496094 321.332031 279.894531 320.410156 281.273438 C 319.492188 282.652344 318.539062 284.007812 317.550781 285.335938 C 316.5625 286.667969 315.542969 287.972656 314.492188 289.253906 C 313.441406 290.535156 312.359375 291.789062 311.246094 293.019531 C 310.136719 294.246094 308.992188 295.445312 307.820312 296.617188 C 306.648438 297.789062 305.449219 298.933594 304.222656 300.042969 C 302.996094 301.15625 301.742188 302.238281 300.460938 303.289062 C 299.179688 304.34375 297.875 305.363281 296.542969 306.347656 C 295.210938 307.335938 293.859375 308.289062 292.480469 309.210938 C 291.101562 310.128906 289.703125 311.015625 288.28125 311.867188 C 286.859375 312.722656 285.417969 313.539062 283.957031 314.320312 C 282.496094 315.101562 281.019531 315.84375 279.519531 316.554688 C 278.023438 317.261719 276.507812 317.933594 274.976562 318.566406 C 273.445312 319.203125 271.902344 319.796875 270.339844 320.355469 C 268.78125 320.914062 267.207031 321.433594 265.621094 321.914062 C 264.039062 322.394531 262.441406 322.835938 260.832031 323.238281 C 259.226562 323.644531 257.609375 324.003906 255.984375 324.328125 C 254.359375 324.652344 252.730469 324.9375 251.089844 325.179688 C 249.449219 325.421875 247.808594 325.625 246.160156 325.789062 C 244.507812 325.949219 242.859375 326.070312 241.203125 326.152344 C 239.546875 326.234375 237.890625 326.273438 236.234375 326.273438 C 234.578125 326.273438 232.921875 326.234375 231.269531 326.152344 C 229.613281 326.070312 227.960938 325.949219 226.3125 325.789062 C 224.664062 325.625 223.019531 325.421875 221.378906 325.179688 C 219.742188 324.9375 218.109375 324.652344 216.484375 324.328125 C 214.859375 324.003906 213.242188 323.644531 211.636719 323.238281 C 210.027344 322.835938 208.433594 322.394531 206.847656 321.914062 C 205.261719 321.433594 203.6875 320.914062 202.128906 320.355469 C 200.570312 319.796875 199.023438 319.203125 197.492188 318.566406 C 195.960938 317.933594 194.449219 317.261719 192.949219 316.554688 C 191.453125 315.84375 189.972656 315.101562 188.511719 314.320312 C 187.050781 313.539062 185.609375 312.722656 184.1875 311.867188 C 182.765625 311.015625 181.367188 310.128906 179.992188 309.210938 C 178.613281 308.289062 177.257812 307.335938 175.929688 306.347656 C 174.597656 305.363281 173.292969 304.34375 172.011719 303.289062 C 170.730469 302.238281 169.476562 301.15625 168.246094 300.042969 C 167.019531 298.933594 165.820312 297.789062 164.648438 296.617188 C 163.476562 295.445312 162.335938 294.246094 161.222656 293.019531 C 160.109375 291.789062 159.027344 290.535156 157.976562 289.253906 C 156.925781 287.972656 155.90625 286.667969 154.921875 285.335938 C 153.933594 284.007812 152.980469 282.652344 152.058594 281.273438 C 151.136719 279.894531 150.253906 278.496094 149.402344 277.074219 C 148.546875 275.652344 147.730469 274.210938 146.953125 272.75 C 146.171875 271.289062 145.425781 269.808594 144.71875 268.3125 C 144.007812 266.8125 143.335938 265.300781 142.703125 263.769531 C 142.070312 262.238281 141.472656 260.691406 140.914062 259.132812 C 140.355469 257.570312 139.835938 256 139.355469 254.414062 C 138.875 252.828125 138.433594 251.230469 138.03125 249.621094 C 137.628906 248.015625 137.265625 246.398438 136.941406 244.773438 C 136.621094 243.148438 136.335938 241.515625 136.09375 239.878906 C 135.851562 238.238281 135.648438 236.59375 135.484375 234.945312 C 135.324219 233.296875 135.199219 231.644531 135.121094 229.988281 C 135.039062 228.332031 134.996094 226.675781 134.996094 225.019531 C 134.996094 223.363281 135.039062 221.707031 135.121094 220.050781 C 135.199219 218.394531 135.324219 216.746094 135.484375 215.09375 C 135.648438 213.445312 135.851562 211.800781 136.09375 210.164062 C 136.335938 208.523438 136.621094 206.890625 136.941406 205.265625 C 137.265625 203.640625 137.628906 202.023438 138.03125 200.417969 C 138.433594 198.808594 138.875 197.214844 139.355469 195.628906 C 139.835938 194.042969 140.355469 192.46875 140.914062 190.90625 C 141.472656 189.347656 142.070312 187.800781 142.703125 186.269531 C 143.335938 184.742188 144.007812 183.226562 144.71875 181.726562 C 145.425781 180.230469 146.171875 178.75 146.953125 177.289062 C 147.730469 175.828125 148.546875 174.386719 149.402344 172.964844 C 150.253906 171.542969 151.136719 170.144531 152.058594 168.765625 C 152.980469 167.386719 153.933594 166.035156 154.921875 164.703125 C 155.90625 163.371094 156.925781 162.066406 157.976562 160.785156 C 159.027344 159.503906 160.109375 158.25 161.222656 157.019531 C 162.335938 155.792969 163.476562 154.59375 164.648438 153.421875 C 165.820312 152.25 167.019531 151.109375 168.246094 149.996094 C 169.476562 148.882812 170.730469 147.800781 172.011719 146.75 C 173.292969 145.699219 174.597656 144.679688 175.929688 143.691406 C 177.257812 142.703125 178.613281 141.75 179.992188 140.828125 C 181.367188 139.910156 182.765625 139.023438 184.1875 138.171875 C 185.609375 137.320312 187.050781 136.503906 188.511719 135.722656 C 189.972656 134.941406 191.453125 134.195312 192.949219 133.488281 C 194.449219 132.777344 195.960938 132.105469 197.492188 131.472656 C 199.023438 130.839844 200.570312 130.242188 202.128906 129.683594 C 203.6875 129.125 205.261719 128.605469 206.847656 128.125 C 208.433594 127.644531 210.027344 127.203125 211.636719 126.800781 C 213.242188 126.398438 214.859375 126.035156 216.484375 125.710938 C 218.109375 125.386719 219.742188 125.105469 221.378906 124.859375 C 223.019531 124.617188 224.664062 124.414062 226.3125 124.253906 C 227.960938 124.089844 229.613281 123.96875 231.269531 123.886719 C 232.921875 123.804688 234.578125 123.765625 236.234375 123.765625 C 237.890625 123.765625 239.546875 123.804688 241.203125 123.886719 C 242.859375 123.96875 244.507812 124.089844 246.160156 124.253906 C 247.808594 124.414062 249.449219 124.617188 251.089844 124.859375 C 252.730469 125.105469 254.359375 125.386719 255.984375 125.710938 C 257.609375 126.035156 259.226562 126.398438 260.832031 126.800781 C 262.441406 127.203125 264.039062 127.644531 265.621094 128.125 C 267.207031 128.605469 268.78125 129.125 270.339844 129.683594 C 271.902344 130.242188 273.445312 130.839844 274.976562 131.472656 C 276.507812 132.105469 278.023438 132.777344 279.519531 133.488281 C 281.019531 134.195312 282.496094 134.941406 283.957031 135.722656 C 285.417969 136.503906 286.859375 137.320312 288.28125 138.171875 C 289.703125 139.023438 291.101562 139.910156 292.480469 140.828125 C 293.859375 141.75 295.210938 142.703125 296.542969 143.691406 C 297.875 144.679688 299.179688 145.699219 300.460938 146.75 C 301.742188 147.800781 302.996094 148.882812 304.222656 149.996094 C 305.449219 151.109375 306.648438 152.25 307.820312 153.421875 C 308.992188 154.59375 310.136719 155.792969 311.246094 157.019531 C 312.359375 158.25 313.441406 159.503906 314.492188 160.785156 C 315.542969 162.066406 316.5625 163.371094 317.550781 164.703125 C 318.539062 166.035156 319.492188 167.386719 320.410156 168.765625 C 321.332031 170.144531 322.21875 171.542969 323.070312 172.964844 C 323.921875 174.386719 324.738281 175.828125 325.519531 177.289062 C 326.300781 178.75 327.042969 180.230469 327.753906 181.726562 C 328.460938 183.226562 329.132812 184.742188 329.765625 186.269531 C 330.402344 187.800781 330.996094 189.347656 331.554688 190.90625 C 332.113281 192.46875 332.632812 194.042969 333.113281 195.628906 C 333.59375 197.214844 334.035156 198.808594 334.4375 200.417969 C 334.839844 202.023438 335.203125 203.640625 335.527344 205.265625 C 335.851562 206.890625 336.132812 208.523438 336.378906 210.164062 C 336.621094 211.800781 336.824219 213.445312 336.984375 215.09375 C 337.148438 216.746094 337.269531 218.394531 337.351562 220.050781 C 337.433594 221.707031 337.472656 223.363281 337.472656 225.019531 Z M 337.472656 225.019531 " fill-opacity="1" fill-rule="nonzero"/></g><path fill="#614613" d="M 221.289062 190.753906 C 221.289062 191.824219 221.199219 192.878906 221.023438 193.929688 C 220.847656 194.976562 220.589844 195.992188 220.246094 196.976562 C 219.898438 197.964844 219.476562 198.902344 218.976562 199.789062 C 218.476562 200.675781 217.910156 201.5 217.273438 202.253906 C 216.636719 203.007812 215.941406 203.683594 215.195312 204.273438 C 214.445312 204.867188 213.65625 205.371094 212.824219 205.777344 C 211.992188 206.1875 211.132812 206.496094 210.25 206.703125 C 209.367188 206.910156 208.476562 207.015625 207.574219 207.015625 C 206.675781 207.015625 205.785156 206.910156 204.902344 206.703125 C 204.019531 206.496094 203.160156 206.1875 202.328125 205.777344 C 201.496094 205.371094 200.707031 204.867188 199.957031 204.273438 C 199.210938 203.683594 198.515625 203.007812 197.878906 202.253906 C 197.242188 201.5 196.675781 200.675781 196.175781 199.789062 C 195.675781 198.902344 195.25 197.964844 194.90625 196.976562 C 194.5625 195.992188 194.300781 194.976562 194.125 193.929688 C 193.953125 192.878906 193.863281 191.824219 193.863281 190.753906 C 193.863281 189.6875 193.953125 188.628906 194.125 187.582031 C 194.300781 186.535156 194.5625 185.519531 194.90625 184.535156 C 195.25 183.546875 195.675781 182.609375 196.175781 181.722656 C 196.675781 180.835938 197.242188 180.011719 197.878906 179.257812 C 198.515625 178.503906 199.210938 177.828125 199.957031 177.234375 C 200.707031 176.644531 201.496094 176.140625 202.328125 175.734375 C 203.160156 175.324219 204.019531 175.015625 204.902344 174.808594 C 205.785156 174.601562 206.675781 174.496094 207.574219 174.496094 C 208.476562 174.496094 209.367188 174.601562 210.25 174.808594 C 211.132812 175.015625 211.992188 175.324219 212.824219 175.734375 C 213.65625 176.140625 214.445312 176.644531 215.195312 177.234375 C 215.941406 177.828125 216.636719 178.503906 217.273438 179.257812 C 217.910156 180.011719 218.476562 180.835938 218.976562 181.722656 C 219.476562 182.609375 219.898438 183.546875 220.246094 184.535156 C 220.589844 185.519531 220.847656 186.535156 221.023438 187.582031 C 221.199219 188.628906 221.289062 189.6875 221.289062 190.753906 Z M 221.289062 190.753906 " fill-opacity="1" fill-rule="nonzero"/><path fill="#614613" d="M 287.808594 196.78125 C 287.808594 197.84375 287.71875 198.898438 287.542969 199.941406 C 287.371094 200.984375 287.109375 201.996094 286.765625 202.980469 C 286.425781 203.960938 286.003906 204.894531 285.503906 205.777344 C 285.007812 206.664062 284.441406 207.480469 283.808594 208.234375 C 283.171875 208.984375 282.484375 209.65625 281.738281 210.246094 C 280.992188 210.835938 280.203125 211.335938 279.375 211.742188 C 278.546875 212.152344 277.695312 212.457031 276.8125 212.664062 C 275.933594 212.871094 275.046875 212.976562 274.148438 212.976562 C 273.253906 212.976562 272.363281 212.871094 271.484375 212.664062 C 270.605469 212.457031 269.75 212.152344 268.921875 211.742188 C 268.09375 211.335938 267.308594 210.835938 266.5625 210.246094 C 265.816406 209.65625 265.125 208.984375 264.492188 208.234375 C 263.859375 207.480469 263.292969 206.664062 262.792969 205.777344 C 262.296875 204.894531 261.875 203.960938 261.53125 202.980469 C 261.1875 201.996094 260.929688 200.984375 260.753906 199.941406 C 260.578125 198.898438 260.492188 197.84375 260.492188 196.78125 C 260.492188 195.71875 260.578125 194.664062 260.753906 193.621094 C 260.929688 192.578125 261.1875 191.566406 261.53125 190.585938 C 261.875 189.601562 262.296875 188.667969 262.792969 187.785156 C 263.292969 186.902344 263.859375 186.082031 264.492188 185.332031 C 265.125 184.578125 265.816406 183.90625 266.5625 183.316406 C 267.308594 182.726562 268.09375 182.226562 268.921875 181.820312 C 269.75 181.414062 270.605469 181.105469 271.484375 180.898438 C 272.363281 180.691406 273.253906 180.585938 274.148438 180.585938 C 275.046875 180.585938 275.933594 180.691406 276.8125 180.898438 C 277.695312 181.105469 278.546875 181.414062 279.375 181.820312 C 280.203125 182.226562 280.992188 182.726562 281.738281 183.316406 C 282.484375 183.90625 283.171875 184.578125 283.808594 185.332031 C 284.441406 186.082031 285.007812 186.902344 285.503906 187.785156 C 286.003906 188.667969 286.425781 189.601562 286.765625 190.585938 C 287.109375 191.566406 287.371094 192.578125 287.542969 193.621094 C 287.71875 194.664062 287.808594 195.71875 287.808594 196.78125 Z M 287.808594 196.78125 " fill-opacity="1" fill-rule="nonzero"/><g clip-path="url(#2d3e357147)"><path fill="#e4953e" d="M 277.304688 265.351562 C 276.238281 261.085938 271.910156 258.5 267.648438 259.566406 L 215.019531 272.761719 C 214.9375 272.78125 204.875 275.300781 203.414062 273.792969 C 201.945312 272.285156 204.984375 271.4375 208.769531 265.578125 C 212.695312 259.507812 210.921875 250.324219 208.835938 243.894531 C 207.195312 238.835938 203.902344 232.621094 198.953125 230.121094 C 195.261719 228.253906 189.992188 229.253906 187.34375 232.503906 C 184.898438 235.507812 187.070312 238.941406 187.882812 242.074219 C 188.941406 246.167969 189.761719 251.308594 188.742188 255.484375 C 188.148438 257.933594 186.539062 259.996094 184.859375 261.875 C 181.894531 265.195312 178.59375 268.191406 175.527344 271.417969 C 173.988281 273.039062 172.507812 274.71875 171.175781 276.515625 C 169.933594 278.191406 168.550781 279.949219 167.652344 281.835938 C 166.050781 285.203125 162.042969 295.785156 168.933594 314.660156 C 175.828125 333.535156 197.308594 337.375 202.835938 337.445312 C 208.363281 337.515625 215.625 335.71875 215.625 335.71875 L 233.703125 332.191406 C 238.5 331.253906 241.628906 326.609375 240.691406 321.816406 C 240.296875 319.785156 239.207031 318.078125 237.75 316.828125 C 242.457031 315.824219 245.511719 311.238281 244.585938 306.5 C 243.996094 303.480469 241.941406 301.128906 239.300781 300.027344 C 243.613281 298.742188 246.351562 294.40625 245.46875 289.894531 C 244.808594 286.519531 242.296875 284 239.199219 283.117188 L 271.519531 275.011719 C 275.785156 273.941406 278.375 269.617188 277.304688 265.351562 Z M 277.304688 265.351562 " fill-opacity="1" fill-rule="nonzero"/></g><path fill="#614613" d="M 186.492188 156.699219 C 186.492188 156.699219 208.386719 147.101562 228.675781 156.699219 Z M 186.492188 156.699219 " fill-opacity="1" fill-rule="nonzero"/><path fill="#614613" d="M 186.496094 161.121094 C 184.792969 161.121094 183.167969 160.132812 182.441406 158.472656 C 181.460938 156.238281 182.480469 153.628906 184.71875 152.648438 C 185.6875 152.222656 208.707031 142.363281 230.566406 152.699219 C 232.773438 153.742188 233.71875 156.378906 232.675781 158.589844 C 231.628906 160.796875 228.992188 161.738281 226.785156 160.699219 C 208.523438 152.058594 188.46875 160.664062 188.265625 160.75 C 187.691406 161.003906 187.085938 161.121094 186.496094 161.121094 Z M 186.496094 161.121094 " fill-opacity="1" fill-rule="nonzero"/><path fill="#614613" d="M 300.59375 182.734375 C 300.59375 182.734375 279.480469 171.527344 258.53125 179.578125 Z M 300.59375 182.734375 " fill-opacity="1" fill-rule="nonzero"/><path fill="#614613" d="M 300.59375 187.15625 C 299.894531 187.15625 299.1875 186.992188 298.53125 186.644531 C 298.269531 186.507812 278.832031 176.515625 260.117188 183.707031 C 257.835938 184.582031 255.277344 183.445312 254.402344 181.164062 C 253.523438 178.886719 254.664062 176.328125 256.945312 175.449219 C 279.515625 166.78125 301.734375 178.332031 302.667969 178.828125 C 304.828125 179.972656 305.648438 182.648438 304.503906 184.808594 C 303.707031 186.304688 302.175781 187.15625 300.59375 187.15625 Z M 300.59375 187.15625 " fill-opacity="1" fill-rule="nonzero"/><path fill="#614613" d="M 219.082031 244.246094 C 219.082031 244.246094 239.621094 237.851562 259.289062 251.804688 Z M 219.082031 244.246094 " fill-opacity="1" fill-rule="nonzero"/><path fill="#614613" d="M 259.285156 256.226562 C 258.398438 256.226562 257.503906 255.960938 256.730469 255.410156 C 239.191406 242.96875 221.144531 248.242188 220.382812 248.472656 C 218.058594 249.179688 215.578125 247.871094 214.863281 245.542969 C 214.148438 243.214844 215.441406 240.746094 217.769531 240.023438 C 218.691406 239.734375 240.640625 233.148438 261.847656 248.195312 C 263.839844 249.609375 264.308594 252.371094 262.894531 254.363281 C 262.03125 255.578125 260.667969 256.226562 259.285156 256.226562 Z M 259.285156 256.226562 " fill-opacity="1" fill-rule="nonzero"/></svg>