<svg xmlns="http://www.w3.org/2000/svg" xmlns:xlink="http://www.w3.org/1999/xlink" width="500" zoomAndPan="magnify" viewBox="0 0 375 374.999991" height="500" preserveAspectRatio="xMidYMid meet" version="1.0"><defs><clipPath id="1046513b6e"><path d="M 37.5 42.375 L 251 42.375 L 251 271 L 37.5 271 Z M 37.5 42.375 " clip-rule="nonzero"/></clipPath><clipPath id="fd86be4a40"><path d="M 69 42.375 L 75 42.375 L 75 245 L 69 245 Z M 69 42.375 " clip-rule="nonzero"/></clipPath><clipPath id="cea50ebace"><path d="M 37.5 239 L 251 239 L 251 300 L 37.5 300 Z M 37.5 239 " clip-rule="nonzero"/></clipPath><clipPath id="cdc3a5c49e"><path d="M 77 265 L 132 265 L 132 332.625 L 77 332.625 Z M 77 265 " clip-rule="nonzero"/></clipPath></defs><g clip-path="url(#1046513b6e)"><path fill="#000000" d="M 37.453125 268.222656 C 37.453125 269.667969 38.625 270.839844 40.070312 270.839844 C 41.515625 270.839844 42.6875 269.667969 42.6875 268.222656 L 42.664062 77.488281 L 42.675781 77.488281 L 42.675781 77.484375 C 42.675781 69.375 45.992188 62 51.34375 56.652344 C 56.699219 51.296875 64.074219 47.972656 72.175781 47.972656 L 72.175781 47.984375 L 242.289062 47.984375 C 243.125 47.984375 243.886719 48.328125 244.4375 48.878906 C 244.992188 49.433594 245.335938 50.195312 245.335938 51.027344 L 245.335938 77.765625 C 245.335938 79.214844 246.511719 80.390625 247.960938 80.390625 C 249.410156 80.390625 250.585938 79.214844 250.585938 77.765625 L 250.585938 51.027344 C 250.585938 48.742188 249.65625 46.667969 248.152344 45.167969 C 246.648438 43.664062 244.574219 42.730469 242.289062 42.730469 L 72.175781 42.730469 L 72.175781 42.742188 C 62.609375 42.742188 53.921875 46.648438 47.628906 52.941406 C 41.332031 59.238281 37.421875 67.925781 37.421875 77.484375 L 37.421875 77.488281 L 37.433594 77.488281 Z M 250.585938 209.855469 C 250.585938 208.40625 249.410156 207.230469 247.960938 207.230469 C 246.511719 207.230469 245.335938 208.40625 245.335938 209.855469 L 245.335938 241.929688 C 245.335938 243.382812 246.511719 244.558594 247.960938 244.558594 C 249.410156 244.558594 250.585938 243.382812 250.585938 241.929688 Z M 250.585938 209.855469 " fill-opacity="1" fill-rule="nonzero"/></g><g clip-path="url(#fd86be4a40)"><path fill="#000000" d="M 74.804688 45.355469 C 74.804688 43.90625 73.628906 42.730469 72.179688 42.730469 C 70.730469 42.730469 69.554688 43.90625 69.554688 45.355469 L 69.554688 241.929688 C 69.554688 243.378906 70.730469 244.554688 72.179688 244.554688 C 73.628906 244.554688 74.804688 243.378906 74.804688 241.929688 Z M 74.804688 45.355469 " fill-opacity="1" fill-rule="nonzero"/></g><g clip-path="url(#cea50ebace)"><path fill="#000000" d="M 247.960938 299.367188 C 249.410156 299.367188 250.585938 298.191406 250.585938 296.742188 C 250.585938 295.292969 249.410156 294.117188 247.960938 294.117188 L 129.261719 294.117188 C 127.8125 294.117188 126.636719 295.292969 126.636719 296.742188 C 126.636719 298.191406 127.8125 299.367188 129.261719 299.367188 Z M 80.117188 299.367188 C 81.570312 299.367188 82.746094 298.191406 82.746094 296.742188 C 82.746094 295.292969 81.570312 294.117188 80.117188 294.117188 L 67.453125 294.117188 C 60.644531 294.117188 54.449219 291.328125 49.957031 286.835938 C 45.464844 282.34375 42.675781 276.148438 42.675781 269.335938 C 42.675781 262.523438 45.464844 256.328125 49.957031 251.835938 C 54.449219 247.34375 60.644531 244.554688 67.453125 244.554688 L 247.960938 244.554688 C 249.410156 244.554688 250.585938 243.378906 250.585938 241.929688 C 250.585938 240.476562 249.410156 239.300781 247.960938 239.300781 L 67.453125 239.300781 C 59.191406 239.300781 51.683594 242.679688 46.242188 248.121094 C 40.800781 253.5625 37.421875 261.074219 37.421875 269.335938 C 37.421875 277.597656 40.800781 285.105469 46.242188 290.546875 C 51.683594 295.992188 59.191406 299.367188 67.453125 299.367188 Z M 80.117188 299.367188 " fill-opacity="1" fill-rule="nonzero"/></g><path fill="#000000" d="M 68.398438 265.765625 C 66.949219 265.765625 65.773438 266.941406 65.773438 268.390625 C 65.773438 269.839844 66.949219 271.015625 68.398438 271.015625 L 227.171875 271.015625 C 228.621094 271.015625 229.796875 269.839844 229.796875 268.390625 C 229.796875 266.941406 228.621094 265.765625 227.171875 265.765625 Z M 68.398438 265.765625 " fill-opacity="1" fill-rule="nonzero"/><path fill="#000000" d="M 245.734375 298.128906 C 246.5 299.359375 248.117188 299.734375 249.347656 298.96875 C 250.574219 298.203125 250.953125 296.585938 250.1875 295.359375 C 244.289062 285.902344 240.207031 277.589844 239.65625 269.378906 C 239.117188 261.320312 242.003906 253.113281 249.972656 243.613281 C 250.902344 242.5 250.753906 240.847656 249.644531 239.917969 C 248.535156 238.992188 246.878906 239.136719 245.953125 240.246094 C 237.015625 250.902344 233.792969 260.3125 234.425781 269.730469 C 235.046875 278.992188 239.421875 288.007812 245.734375 298.128906 Z M 245.734375 298.128906 " fill-opacity="1" fill-rule="nonzero"/><g clip-path="url(#cdc3a5c49e)"><path fill="#000000" d="M 131.886719 268.390625 C 131.886719 266.941406 130.710938 265.765625 129.261719 265.765625 C 127.8125 265.765625 126.636719 266.941406 126.636719 268.390625 L 126.636719 322.402344 L 106.722656 299.378906 L 106.730469 299.371094 C 105.78125 298.273438 104.121094 298.15625 103.023438 299.101562 C 102.875 299.234375 102.742188 299.378906 102.628906 299.53125 L 82.746094 322.425781 L 82.746094 268.390625 C 82.746094 266.941406 81.570312 265.765625 80.117188 265.765625 C 78.667969 265.765625 77.492188 266.941406 77.492188 268.390625 L 77.492188 329.441406 C 77.492188 330.175781 77.800781 330.90625 78.398438 331.425781 C 79.492188 332.375 81.152344 332.257812 82.101562 331.164062 L 80.117188 329.441406 L 82.097656 331.15625 L 104.738281 305.085938 L 127.148438 331 C 127.625 331.648438 128.394531 332.066406 129.261719 332.066406 C 130.710938 332.066406 131.886719 330.890625 131.886719 329.441406 Z M 131.886719 268.390625 " fill-opacity="1" fill-rule="nonzero"/></g><path fill="#000000" d="M 190.007812 82.710938 C 206.875 72.332031 226.355469 69.769531 244.210938 74.023438 C 262.070312 78.273438 278.308594 89.339844 288.6875 106.210938 C 299.070312 123.078125 301.628906 142.558594 297.378906 160.414062 C 293.125 178.273438 282.058594 194.511719 265.191406 204.890625 C 248.320312 215.269531 228.84375 217.832031 210.988281 213.578125 C 193.128906 209.328125 176.890625 198.261719 166.507812 181.390625 C 156.128906 164.523438 153.566406 145.042969 157.820312 127.1875 C 162.074219 109.328125 173.136719 93.089844 190.007812 82.710938 Z M 243 79.128906 C 226.449219 75.1875 208.390625 77.5625 192.757812 87.183594 C 177.125 96.804688 166.867188 111.851562 162.929688 128.398438 C 158.988281 144.949219 161.359375 163.007812 170.980469 178.640625 C 180.601562 194.277344 195.648438 204.53125 212.195312 208.472656 C 228.75 212.414062 246.804688 210.039062 262.441406 200.417969 C 278.074219 190.796875 288.328125 175.75 292.269531 159.203125 C 296.210938 142.652344 293.839844 124.59375 284.214844 108.960938 C 274.597656 93.324219 259.550781 83.070312 243 79.128906 Z M 243 79.128906 " fill-opacity="1" fill-rule="nonzero"/><path fill="#000000" d="M 198.5 96.511719 C 211.558594 88.476562 226.636719 86.492188 240.457031 89.785156 C 254.285156 93.078125 266.851562 101.644531 274.890625 114.703125 C 282.925781 127.757812 284.90625 142.839844 281.613281 156.660156 C 278.324219 170.484375 269.757812 183.054688 256.699219 191.089844 C 243.640625 199.125 228.5625 201.109375 214.738281 197.816406 C 200.914062 194.523438 188.34375 185.957031 180.308594 172.898438 C 172.273438 159.84375 170.292969 144.761719 173.582031 130.941406 C 176.875 117.117188 185.441406 104.546875 198.5 96.511719 Z M 239.246094 94.894531 C 226.730469 91.914062 213.074219 93.707031 201.25 100.984375 C 189.425781 108.257812 181.671875 119.636719 178.691406 132.152344 C 175.710938 144.671875 177.503906 158.324219 184.78125 170.152344 C 192.058594 181.972656 203.4375 189.730469 215.949219 192.707031 C 228.46875 195.6875 242.125 193.894531 253.949219 186.617188 C 265.773438 179.34375 273.527344 167.964844 276.507812 155.449219 C 279.488281 142.929688 277.691406 129.277344 270.417969 117.449219 C 263.140625 105.628906 251.761719 97.871094 239.246094 94.894531 Z M 239.246094 94.894531 " fill-opacity="1" fill-rule="nonzero"/><path fill="#000000" d="M 270.957031 198.054688 C 270.230469 196.800781 268.628906 196.375 267.375 197.097656 C 266.125 197.824219 265.699219 199.425781 266.421875 200.679688 L 283.664062 230.542969 C 284.390625 231.796875 285.992188 232.222656 287.246094 231.5 C 288.496094 230.773438 288.925781 229.171875 288.199219 227.917969 Z M 270.152344 238.335938 C 270.871094 239.589844 272.46875 240.019531 273.71875 239.300781 C 274.972656 238.582031 275.40625 236.984375 274.683594 235.730469 L 257.445312 205.867188 C 256.722656 204.617188 255.125 204.183594 253.875 204.902344 C 252.621094 205.625 252.191406 207.222656 252.910156 208.472656 Z M 270.152344 238.335938 " fill-opacity="1" fill-rule="nonzero"/><path fill="#000000" d="M 265.117188 238.222656 L 290.769531 223.414062 L 290.769531 223.40625 C 292.023438 222.683594 293.628906 223.113281 294.355469 224.367188 C 294.386719 224.421875 294.414062 224.476562 294.441406 224.527344 L 334.453125 293.828125 L 334.457031 293.828125 C 334.503906 293.90625 334.546875 293.988281 334.582031 294.070312 C 336.878906 298.191406 337.328125 302.871094 336.191406 307.121094 C 335.042969 311.398438 332.296875 315.246094 328.21875 317.664062 C 328.085938 317.757812 327.945312 317.832031 327.800781 317.898438 C 323.675781 320.195312 318.996094 320.644531 314.75 319.503906 C 310.414062 318.34375 306.515625 315.535156 304.105469 311.359375 L 264 241.898438 L 263.996094 241.898438 C 263.269531 240.640625 263.699219 239.035156 264.957031 238.308594 C 265.007812 238.277344 265.0625 238.25 265.117188 238.222656 Z M 291.121094 229.261719 L 269.847656 241.542969 L 308.640625 308.730469 C 310.328125 311.652344 313.058594 313.621094 316.101562 314.4375 C 319.085938 315.234375 322.355469 314.933594 325.230469 313.34375 C 325.289062 313.300781 325.351562 313.261719 325.417969 313.226562 L 325.417969 313.230469 C 328.339844 311.542969 330.308594 308.8125 331.121094 305.769531 C 331.921875 302.785156 331.617188 299.515625 330.027344 296.640625 C 329.988281 296.582031 329.945312 296.519531 329.910156 296.457031 L 329.914062 296.453125 Z M 291.121094 229.261719 " fill-opacity="1" fill-rule="nonzero"/><path fill="#eceff1" d="M 227.171875 271.015625 L 131.890625 271.015625 L 131.890625 294.117188 L 243.308594 294.117188 C 238.316406 285.585938 234.964844 277.75 234.425781 269.726562 C 233.882812 261.601562 236.207031 253.476562 242.597656 244.554688 L 67.453125 244.554688 C 60.644531 244.554688 54.449219 247.34375 49.957031 251.835938 C 45.464844 256.328125 42.675781 262.523438 42.675781 269.335938 C 42.675781 276.148438 45.464844 282.34375 49.957031 286.835938 C 54.449219 291.328125 60.644531 294.117188 67.453125 294.117188 L 77.492188 294.117188 L 77.492188 271.015625 L 68.402344 271.015625 C 66.949219 271.015625 65.773438 269.839844 65.773438 268.390625 C 65.773438 266.941406 66.949219 265.765625 68.402344 265.765625 L 227.171875 265.765625 C 228.621094 265.765625 229.796875 266.941406 229.796875 268.390625 C 229.796875 269.839844 228.621094 271.015625 227.171875 271.015625 Z M 227.171875 271.015625 " fill-opacity="1" fill-rule="evenodd"/><path fill="#fae76d" d="M 126.636719 296.742188 L 126.636719 271.019531 L 82.746094 271.019531 L 82.746094 322.425781 L 102.628906 299.53125 C 102.742188 299.378906 102.875 299.234375 103.023438 299.105469 C 104.121094 298.15625 105.78125 298.277344 106.730469 299.375 L 106.722656 299.378906 L 126.636719 322.402344 Z M 126.636719 296.742188 " fill-opacity="1" fill-rule="evenodd"/><path fill="#e29579" d="M 69.554688 239.304688 L 69.554688 48.089844 C 62.488281 48.722656 56.113281 51.882812 51.34375 56.652344 C 45.992188 62 42.675781 69.375 42.675781 77.484375 L 42.675781 77.488281 L 42.664062 77.488281 L 42.683594 252.402344 C 43.738281 250.867188 44.929688 249.433594 46.242188 248.125 C 51.683594 242.683594 59.191406 239.304688 67.453125 239.304688 Z M 69.554688 239.304688 " fill-opacity="1" fill-rule="evenodd"/><path fill="#e29579" d="M 74.804688 47.984375 L 74.804688 239.304688 L 245.335938 239.304688 L 245.335938 213.324219 C 233.941406 216.234375 222.148438 216.238281 210.988281 213.578125 C 193.128906 209.328125 176.890625 198.261719 166.507812 181.390625 C 156.128906 164.523438 153.566406 145.042969 157.820312 127.1875 C 162.074219 109.328125 173.136719 93.089844 190.007812 82.710938 C 206.875 72.332031 226.355469 69.769531 244.210938 74.023438 C 244.585938 74.109375 244.960938 74.203125 245.335938 74.300781 L 245.335938 51.027344 C 245.335938 50.191406 244.992188 49.433594 244.4375 48.878906 C 243.886719 48.328125 243.125 47.984375 242.289062 47.984375 Z M 74.804688 47.984375 " fill-opacity="1" fill-rule="evenodd"/><path fill="#46958e" d="M 162.929688 128.398438 C 158.988281 144.949219 161.359375 163.007812 170.980469 178.640625 C 180.601562 194.277344 195.648438 204.53125 212.195312 208.472656 C 223.554688 211.175781 235.617188 210.90625 247.121094 207.363281 C 247.164062 207.351562 247.207031 207.339844 247.246094 207.328125 C 252.46875 205.707031 257.570312 203.414062 262.441406 200.417969 C 278.074219 190.796875 288.328125 175.75 292.269531 159.203125 C 296.210938 142.652344 293.839844 124.59375 284.214844 108.960938 C 275.433594 94.683594 262.125 84.894531 247.285156 80.300781 C 247.21875 80.285156 247.15625 80.265625 247.09375 80.242188 C 245.742188 79.828125 244.375 79.457031 243 79.128906 C 226.449219 75.1875 208.390625 77.5625 192.757812 87.183594 C 177.125 96.804688 166.867188 111.851562 162.929688 128.398438 Z M 214.738281 197.816406 C 200.914062 194.523438 188.34375 185.957031 180.308594 172.898438 C 172.273438 159.84375 170.292969 144.761719 173.582031 130.941406 C 176.875 117.117188 185.441406 104.546875 198.5 96.511719 C 211.558594 88.476562 226.636719 86.492188 240.457031 89.785156 C 254.285156 93.078125 266.851562 101.644531 274.890625 114.703125 C 282.925781 127.757812 284.90625 142.839844 281.613281 156.660156 C 278.324219 170.484375 269.757812 183.054688 256.699219 191.089844 C 243.640625 199.125 228.5625 201.109375 214.738281 197.816406 Z M 214.738281 197.816406 " fill-opacity="1" fill-rule="evenodd"/><path fill="#eceff1" d="M 178.691406 132.152344 C 175.710938 144.671875 177.503906 158.324219 184.78125 170.152344 C 192.058594 181.972656 203.4375 189.730469 215.949219 192.707031 C 228.46875 195.6875 242.125 193.894531 253.949219 186.617188 C 265.773438 179.34375 273.527344 167.964844 276.507812 155.449219 C 279.488281 142.929688 277.691406 129.277344 270.417969 117.449219 C 263.140625 105.628906 251.761719 97.871094 239.246094 94.894531 C 226.730469 91.914062 213.074219 93.707031 201.25 100.984375 C 189.425781 108.257812 181.671875 119.636719 178.691406 132.152344 Z M 178.691406 132.152344 " fill-opacity="1" fill-rule="evenodd"/><path fill="#46958e" d="M 258.878906 208.355469 L 273.371094 233.457031 L 282.355469 228.273438 L 267.859375 203.167969 C 266.984375 203.757812 266.097656 204.332031 265.191406 204.890625 C 263.125 206.164062 261.015625 207.316406 258.878906 208.355469 Z M 258.878906 208.355469 " fill-opacity="1" fill-rule="evenodd"/><path fill="#e74c49" d="M 287.222656 231.511719 L 269.847656 241.542969 L 308.640625 308.734375 C 310.328125 311.65625 313.058594 313.621094 316.101562 314.4375 C 319.085938 315.238281 322.355469 314.933594 325.230469 313.34375 C 325.289062 313.300781 325.351562 313.261719 325.417969 313.226562 L 325.417969 313.230469 C 328.339844 311.542969 330.308594 308.8125 331.121094 305.769531 C 331.921875 302.789062 331.617188 299.515625 330.027344 296.640625 C 329.988281 296.582031 329.945312 296.519531 329.910156 296.457031 L 329.914062 296.453125 L 291.121094 229.261719 L 287.261719 231.488281 C 287.257812 231.492188 287.25 231.496094 287.246094 231.5 C 287.238281 231.503906 287.230469 231.507812 287.222656 231.511719 Z M 287.222656 231.511719 " fill-opacity="1" fill-rule="evenodd"/></svg>